<?xml version="1.0" encoding="UTF-8"?>
<svg viewBox="0 0 686 558" preserveAspectRatio="xMaxYMax meet" version="1.1" xmlns="http://www.w3.org/2000/svg" xmlns:xlink="http://www.w3.org/1999/xlink">
    <title>Creative Branding</title>
    <g id="Creative-Branding" stroke="none" stroke-width="1" fill="none" fill-rule="evenodd">
        <path d="M343,93 C204.926191,93 93,180.478667 93,288.391739 C93,354.961022 186.494431,355.281116 264.382485,343.984886 C322.123002,335.610807 367.657872,357.965778 367.657872,402.386603 C367.657872,446.807427 416.490733,481.305329 469.546254,456.926536 C543.417129,422.975892 593,360.216764 593,288.391739 C593,180.478667 481.063535,93 343,93 Z" id="Path" fill="#000000" fill-rule="nonzero"></path>
        <path d="M290.635161,245 C292.949433,245 295.028355,245.582066 296.950378,246.707394 C298.872401,247.871526 300.519849,249.462507 301.892722,251.441531 C303.265595,253.45936 304.363894,255.632407 305.109168,257.960671 C305.854442,260.32774 306.285917,262.578395 306.403592,264.790246 C306.403592,265.139486 306.442817,265.52753 306.442817,265.87677 C306.442817,268.399056 306.011342,270.960147 305.148393,273.560042 C304.285444,276.159937 302.951796,278.604615 301.108223,280.85527 C299.26465,283.105926 296.989603,284.890928 294.322306,286.210278 C291.34121,287.646041 288.281664,288.499738 285.104442,288.69376 C287.928639,293.505506 291.458885,297.424751 295.655955,300.451494 C299.853025,303.517042 304.638469,305.651285 310.012287,306.893026 C312.24811,307.397483 314.640832,307.669114 317.268904,307.746723 C317.935728,307.785527 318.563327,307.785527 319.190926,307.785527 C321.073724,307.785527 322.799622,307.669114 324.407845,307.436287 C324.839319,307.358679 325.310019,307.319874 325.702268,307.319874 C326.800567,307.319874 327.898866,307.591505 328.997164,308.173571 C330.134688,308.716833 330.919187,309.764552 331.389887,311.355532 C331.507561,311.821185 331.586011,312.286838 331.586011,312.791295 C331.586011,313.256948 331.507561,313.877819 331.311437,314.653907 C331.115312,315.39119 330.644612,316.167278 329.977788,316.904562 C329.310964,317.641846 328.448015,318.146303 327.428166,318.340325 C324.52552,318.805978 321.622873,319 318.720227,319 C315.189981,319 310.953686,318.534347 306.011342,317.564237 C301.068998,316.594127 295.852079,314.265863 290.399811,310.579444 C283.339319,305.690089 277.847826,299.520189 273.925331,292.030939 C273.807656,293.078658 273.689981,294.24279 273.611531,295.484531 C273.454631,297.15312 272.905482,298.433665 271.964083,299.326167 C271.022684,300.257472 269.924386,300.800734 268.669187,300.955952 C268.433837,300.994756 268.159263,300.994756 267.923913,300.994756 C266.904064,300.994756 265.884216,300.723125 264.864367,300.141059 C263.805293,299.558993 262.981569,298.511274 262.393195,296.997902 C260.745747,292.457787 259.608223,287.801259 258.980624,283.028317 C258.3138,278.294179 258,273.521238 258,268.670687 C258,263.858941 258.117675,259.047195 258.353025,254.274253 C258.431474,252.683272 258.980624,251.363922 260.039698,250.316203 C261.032579,249.333967 262.266786,248.795101 263.742319,248.667632 L264.040643,248.647614 L264.197543,248.647614 C265.138941,248.647614 266.08034,248.88044 266.904064,249.384898 C267.767013,249.889355 268.473062,250.587834 268.982987,251.480336 C269.441919,252.213739 269.710217,253.010005 269.759288,253.840846 L269.767486,254.119035 L269.767486,254.274253 L269.728261,254.42947 C269.532136,258.65915 269.414461,262.888831 269.375236,267.040902 C269.728261,266.226009 270.159735,265.411117 270.59121,264.596224 C272.552457,260.521762 274.905955,256.641321 277.612476,252.993707 C278.632325,251.635553 279.769849,250.355008 280.985822,249.152071 C282.201796,247.987939 283.574669,247.017829 285.065217,246.280545 C286.395597,245.604702 287.890776,245.18971 289.550754,245.035571 L290.007561,245 L290.635161,245 Z M304.206994,307.785527 C303.971645,307.785527 303.77552,307.863136 303.61862,308.057158 C303.46172,308.25118 303.38327,308.445202 303.38327,308.716833 C303.38327,308.794442 303.38327,308.910855 303.422495,309.104877 C303.46172,309.298899 303.657845,309.492921 304.050095,309.648138 C308.953214,311.277923 313.974008,312.092816 319.112476,312.092816 C319.700851,312.092816 320.289225,312.092816 320.877599,312.054012 C321.269849,312.015207 321.544423,311.85999 321.662098,311.549554 C321.740548,311.394337 321.779773,311.239119 321.779773,311.083901 C321.779773,310.928684 321.740548,310.773466 321.622873,310.54064 C321.505198,310.307813 321.269849,310.1914 320.877599,310.1914 C320.367675,310.1914 319.818526,310.230205 319.308601,310.230205 C314.248582,310.230205 309.345463,309.415312 304.520794,307.824331 C304.403119,307.785527 304.285444,307.785527 304.206994,307.785527 Z M324.68242,310.036182 C324.36862,310.036182 324.13327,310.113791 324.015595,310.307813 C323.858696,310.501835 323.780246,310.734662 323.780246,311.006293 C323.780246,311.239119 323.858696,311.433141 324.015595,311.627163 C324.13327,311.821185 324.36862,311.937598 324.68242,311.937598 C324.996219,311.937598 325.231569,311.821185 325.388469,311.627163 C325.506144,311.433141 325.584594,311.239119 325.584594,311.006293 C325.584594,310.734662 325.506144,310.501835 325.388469,310.307813 C325.231569,310.113791 324.996219,310.036182 324.68242,310.036182 Z M237.41357,246 C240.088853,246 242.531502,246.627041 244.819063,247.920314 C247.106624,249.174396 248.96769,250.977139 250.441034,253.367734 C251.914378,255.758328 252.767367,258.423253 252.961228,261.401698 C252.961228,261.754409 253,262.067929 253,262.42064 C253,264.732854 252.573506,267.005879 251.720517,269.278903 C250.9063,271.551927 249.66559,273.707381 248.075929,275.784455 C246.486268,277.861528 244.663974,279.703462 242.609047,281.310255 C243.966074,283.152188 244.857835,285.229262 245.28433,287.502286 C245.400646,288.246897 245.478191,289.030699 245.478191,289.77531 C245.478191,291.303723 245.206785,292.832136 244.702746,294.399739 C243.88853,296.711953 242.725363,298.671457 241.213247,300.31744 C239.662359,301.963423 237.878837,303.256695 235.82391,304.197257 C233.768982,305.137818 231.520194,305.725669 229.155089,305.92162 C228.573506,305.96081 227.991922,306 227.410339,306 C225.859451,306 224.192246,305.80405 222.369952,305.372959 C220.547658,304.941868 218.686591,304.275637 216.747981,303.295885 C214.770598,302.355323 212.909532,301.297191 211.164782,300.082299 C210.273021,299.416068 209.575121,298.632266 209.071082,297.730895 C208.644588,296.907903 208.373183,295.653821 208.295638,294.007838 C207.365105,282.603527 206.434572,271.238406 205.504039,259.873285 C205.400646,258.48857 205.297254,257.121272 205.182373,255.748168 L205,253.681254 L205,253.406924 C205,252.427172 205.271405,251.56499 205.775444,250.781189 C206.279483,249.958197 206.977383,249.331156 207.869144,248.821685 C208.66182,248.368822 209.485131,248.101749 210.339077,248.020466 L210.660743,247.998694 L210.932149,247.998694 C211.901454,247.998694 212.793215,248.233834 213.568659,248.743305 C214.344103,249.252776 214.964459,249.958197 215.468498,250.859569 C215.875606,251.648269 216.134289,252.466974 216.270522,253.315684 L216.321486,253.681254 L216.941842,261.440888 L216.941842,261.754409 C217.290792,261.088178 217.600969,260.421946 217.949919,259.755715 C219.19063,257.286741 220.702746,255.052907 222.52504,253.054213 C224.347334,251.055519 226.402262,249.448726 228.767367,248.233834 C231.0937,247.018942 233.652666,246.274331 236.483037,246.03919 C236.793215,246.03919 237.103393,246 237.41357,246 Z M366.16093,248 C367.684651,248 369.364651,248.351279 371.20093,249.014805 C372.99814,249.717362 374.756279,251.005384 376.436279,252.839838 C378.116279,254.674293 379.444651,256.781965 380.421395,259.162853 C381.827907,262.597577 382.648372,266.071332 382.882791,269.545087 C382.96093,270.559892 383,271.574697 383,272.589502 C383,275.048452 382.765581,277.780619 382.257674,280.746972 C381.749767,283.713324 380.929302,286.874832 379.796279,290.270525 C378.663256,293.666218 377.530233,296.671602 376.475349,299.247645 C375.420465,301.862719 374.834419,303.189771 374.795349,303.228802 C374.092093,304.516824 373.076279,305.336474 371.708837,305.726783 C371.122791,305.921938 370.536744,306 369.950698,306 C369.208372,306 368.466047,305.843876 367.723721,305.570659 C366.903256,305.219381 366.2,304.711978 365.574884,303.97039 C364.949767,303.228802 364.52,302.448183 364.285581,301.550471 C364.168372,301.160162 364.129302,300.769852 364.129302,300.379542 C364.129302,299.87214 364.207442,299.364738 364.402791,298.857335 C365.770233,295.695828 367.020465,292.53432 368.231628,289.294751 C369.403721,286.055182 370.341395,282.776581 371.005581,279.419919 C371.435349,277.273217 371.630698,275.087483 371.630698,272.862719 C371.630698,272.51144 371.591628,271.574697 371.552558,270.130552 C371.513488,268.686406 371.044651,266.656797 370.185116,264.119785 C369.989767,263.573351 369.755349,262.987887 369.48186,262.402423 C369.169302,261.816958 368.856744,261.270525 368.505116,260.841184 C367.606512,259.787349 366.825116,259.279946 366.2,259.279946 C366.043721,259.279946 365.770233,259.358008 365.340465,259.514132 C364.910698,259.709287 364.324651,260.25572 363.504186,261.153432 C362.683721,262.090175 362.136744,263.144011 361.785116,264.275908 C361.433488,265.446837 361.08186,266.734859 360.808372,268.179004 C360.534884,269.623149 360.300465,271.028264 360.105116,272.433378 C359.675349,275.321669 359.40186,278.288022 359.323721,281.293405 C359.284651,282.113055 359.284651,282.971736 359.284651,283.791386 C359.284651,285.539973 359.33466,287.28856 359.434679,289.037147 L359.51907,290.348587 L359.51907,290.777927 C359.51907,291.909825 359.245581,292.846568 358.659535,293.666218 C358.073488,294.485868 357.253023,295.071332 356.237209,295.422611 C355.494884,295.695828 354.713488,295.851952 353.893023,295.851952 C353.619535,295.851952 353.150698,295.812921 352.486512,295.734859 C351.822326,295.656797 351.04093,295.305518 350.181395,294.641992 C349.282791,293.978466 348.696744,293.041723 348.345116,291.831763 C345.102326,279.302826 342.68,266.578735 341.03907,253.73755 C341,253.581427 341,253.425303 341,253.269179 C341,252.410498 341.273488,251.590848 341.820465,250.810229 C342.328372,250.02961 343.070698,249.405114 343.969302,248.897712 C344.768062,248.446688 345.597692,248.180699 346.430751,248.099746 L346.743256,248.078062 L346.899535,248.078062 C347.954419,248.078062 348.853023,248.351279 349.634419,248.858681 C350.415814,249.366083 351.04093,250.068641 351.548837,250.927322 C351.95907,251.71282 352.249651,252.528201 352.394408,253.373465 L352.447442,253.73755 L352.83814,256.703903 C353.932093,254.635262 355.338605,252.878869 357.018605,251.356662 C358.698605,249.873486 360.730233,248.858681 363.113488,248.312248 C364.168372,248.117093 365.184186,248 366.16093,248 Z M327.192817,257.495018 C327.624291,257.495018 328.016541,257.533823 328.448015,257.572627 C332.213611,257.960671 335.077032,259.745674 337.077505,262.888831 C338.764178,265.605139 339.823251,268.942318 340.215501,272.822758 C340.725425,277.789722 341,283.416361 341,289.741479 C341,291.642895 340.960775,293.505506 340.92155,295.406922 C340.882325,296.997902 340.333176,298.317252 339.274102,299.364971 C338.28122,300.347208 337.012538,300.886074 335.532697,301.013543 L335.233932,301.033561 L335.077032,301.033561 C334.096408,301.033561 333.194234,300.800734 332.331285,300.296277 C331.507561,299.79182 330.801512,299.09334 330.291588,298.200839 C329.832656,297.432512 329.564357,296.601321 329.515287,295.707268 L329.507089,295.406922 L329.546314,290.556371 L329.546314,288.150498 C327.388941,288.228107 325.231569,288.305716 323.113422,288.305716 C322.145873,288.305716 321.195757,288.288469 320.239831,288.265474 L318.798677,288.228107 L318.955577,290.168327 C318.955577,291.060829 318.720227,291.914525 318.171078,292.690614 C317.661153,293.466702 316.915879,294.087572 316.013705,294.592029 C314.993856,295.135291 314.013233,295.406922 313.032609,295.406922 C312.01276,295.406922 311.071361,295.174095 310.286862,294.669638 C309.502363,294.165181 308.874764,293.466702 308.404064,292.5742 C307.89414,291.681699 307.619565,290.750393 307.50189,289.780283 C307.40775,288.848977 307.363819,287.917672 307.350011,286.986366 L307.344991,286.287887 L307.344991,285.123755 C306.795841,284.231253 306.521267,283.222339 306.521267,282.097011 C306.521267,280.661248 307.109641,279.341898 308.325614,278.138962 C309.070888,275.228631 310.129962,272.473519 311.502836,269.796015 C313.346408,266.264814 315.621456,263.354483 318.288752,261.103828 C321.112949,258.697955 324.094045,257.495018 327.192817,257.495018 Z M415.211997,243.116644 C416.27691,243.194407 417.736237,243.622101 419.511093,244.399727 C423.770748,246.26603 426.965489,249.337653 429.174199,253.614598 C431.73788,258.708049 433,264.268076 433,270.294679 C433,276.515689 431.580115,281.997954 428.740345,286.702592 C427.00493,289.540928 424.875103,292.029332 422.311422,294.128922 C419.74774,296.267394 416.829088,297.861528 413.594906,298.911323 C411.267872,299.611187 408.980279,300 406.653246,300 C405.667214,300 404.129006,299.844475 402.03862,299.572306 C399.908792,299.300136 397.423993,298.289222 394.584224,296.578445 C391.744454,294.906548 389.377979,292.651432 387.52424,289.890859 C387.062777,289.156003 386.792999,288.389652 386.743658,287.563463 L386.735415,287.285812 L386.735415,286.469304 C386.735415,286.009798 386.930991,285.389625 387.322144,284.637997 L387.445357,284.408595 L385,250.931787 C385,249.959754 385.276089,249.104366 385.788825,248.287858 C386.301561,247.471351 387.011504,246.84925 387.918652,246.343793 C388.904684,245.799454 389.890715,245.527285 390.916187,245.527285 C391.94166,245.527285 392.848809,245.799454 393.677075,246.304911 C394.505341,246.810368 395.136401,247.510232 395.649137,248.365621 C396.104903,249.160528 396.373688,249.986155 396.483192,250.869812 L396.516845,251.203956 L396.714051,254.353342 C399.908792,249.143247 403.734593,245.643929 408.230896,243.89427 C409.887428,243.31105 411.504519,243 413.200493,243 C413.437141,243 414.107642,243.038881 415.211997,243.116644 Z M234.505654,295.693011 C234.350565,295.693011 234.195477,295.732201 234.001616,295.849771 C232.140549,297.025474 230.163166,297.613325 228.069467,297.613325 C227.294023,297.613325 226.518578,297.534944 225.704362,297.378184 C225.626817,297.378184 225.549273,297.338994 225.432956,297.338994 C225.200323,297.338994 224.96769,297.456564 224.812601,297.652515 C224.65105,297.848465 224.570275,298.044415 224.547837,298.263045 L224.541195,298.397126 L224.541195,298.553886 C224.579968,298.867407 224.812601,299.063357 225.200323,299.180927 C226.169628,299.376878 227.138934,299.494448 228.108239,299.494448 C230.512116,299.494448 232.799677,298.828217 234.970921,297.495754 C235.208401,297.290007 235.356826,297.084259 235.390221,296.826002 L235.397415,296.711953 L235.397415,296.633573 C235.358643,296.280862 235.242326,296.045722 235.048465,295.888961 C234.854604,295.771391 234.660743,295.693011 234.505654,295.693011 Z M236.909532,293.224037 C236.483037,293.263227 236.211632,293.419987 236.095315,293.655127 C236.017771,293.929458 235.978998,294.125408 235.978998,294.282169 C235.978998,294.478119 236.017771,294.634879 236.095315,294.83083 C236.250404,295.14435 236.521809,295.30111 236.909532,295.3403 C237.374798,295.30111 237.646204,295.14435 237.723748,294.90921 C237.801292,294.634879 237.840065,294.438929 237.840065,294.282169 C237.840065,294.086218 237.801292,293.929458 237.723748,293.733508 C237.568659,293.419987 237.297254,293.263227 236.909532,293.224037 Z M231.0937,286.640105 C229.116317,287.071195 227.061389,287.267146 225.006462,287.267146 C224.512116,287.267146 223.995961,287.245101 223.474354,287.217546 L222.951535,287.188766 L220.702746,287.737427 C220.547658,288.482038 220.392569,289.265839 220.276252,290.049641 C220.198708,290.480732 220.082391,290.794252 219.966074,291.029393 C219.849758,291.303723 219.733441,291.499673 219.617124,291.656434 C219.558966,291.744611 219.522617,291.810745 219.508078,291.871367 L219.500808,291.930764 L221.28433,292.910516 L221.400646,292.949706 C221.478191,292.988896 221.594507,293.067276 221.710824,293.106466 C221.827141,293.145656 221.904685,293.224037 222.021002,293.263227 C222.098546,293.289353 222.158858,293.31548 222.213427,293.341607 L222.292407,293.380797 L222.369952,293.419987 C223.145396,293.772698 223.959612,294.047028 224.812601,294.242978 C225.66559,294.438929 226.518578,294.556499 227.410339,294.595689 C228.147011,294.595689 228.844911,294.517309 229.581583,294.399739 C230.318255,294.282169 231.0937,293.929458 231.907916,293.419987 C232.722132,292.910516 233.264943,292.361855 233.536349,291.774004 C233.807754,291.186153 233.962843,290.637492 234.040388,290.128021 C234.040388,290.010451 234.07916,289.932071 234.07916,289.8145 C234.07916,289.344219 233.924071,288.756368 233.652666,288.090137 C233.536349,287.894187 233.303716,287.698236 233.03231,287.502286 C232.722132,287.306336 232.063005,287.032005 231.0937,286.640105 Z M418.091208,286.236016 C417.85456,286.236016 417.657354,286.35266 417.460148,286.547067 C414.541495,289.774216 410.991783,291.368349 406.732128,291.368349 C406.006409,291.368349 405.305933,291.318581 404.590311,291.219045 L404.050123,291.135061 L403.852917,291.135061 C403.576828,291.135061 403.30074,291.251705 403.142975,291.446112 C402.945768,291.6794 402.866886,291.912688 402.866886,292.184857 C402.866886,292.57367 403.064092,292.845839 403.537387,292.962483 C404.602301,293.156889 405.627773,293.234652 406.653246,293.234652 C411.504519,293.234652 415.527527,291.446112 418.840592,287.907913 C418.966804,287.721282 419.042531,287.534652 419.067773,287.348022 L419.077239,287.208049 L419.037798,286.93588 C418.840592,286.469304 418.525062,286.236016 418.091208,286.236016 Z M413.752671,254.353342 L413.239934,254.353342 C412.963846,254.353342 412.490551,254.431105 411.820049,254.625512 C411.465078,254.800477 411.110107,254.997314 410.771775,255.216021 L410.439606,255.442019 L409.808546,256.025239 C408.546426,257.230559 407.323747,258.824693 406.179951,260.80764 C403.695152,265.201228 401.841413,270.450205 400.658176,276.593452 C400.108816,279.156841 399.695487,282.089007 399.355034,285.389951 L399.277732,286.158254 L400.303205,286.896999 C401.525883,287.635744 402.590797,288.102319 403.458505,288.296726 C404.286771,288.491132 405.115037,288.568895 405.943303,288.607776 C406.337716,288.646658 406.732128,288.646658 407.126541,288.646658 C407.481512,288.646658 407.954807,288.607776 408.546426,288.568895 C409.098603,288.530014 410.045193,288.257844 411.346754,287.713506 C414.38373,286.35266 416.789647,284.214188 418.564503,281.336971 C420.576007,278.148704 421.562038,274.45498 421.562038,270.255798 C421.562038,267.184175 421.00986,264.07367 419.866064,260.846521 C419.235004,259.252387 418.564503,257.969304 417.815119,256.95839 C417.460148,256.530696 416.986853,256.06412 416.355793,255.4809 C415.685292,254.897681 414.817584,254.547749 413.752671,254.353342 Z M420.812654,283.825375 C420.536565,283.825375 420.299918,283.903138 420.142153,284.097544 C419.984388,284.291951 419.905505,284.525239 419.905505,284.758527 C419.905505,284.991814 419.984388,285.225102 420.142153,285.419509 C420.299918,285.613915 420.536565,285.730559 420.812654,285.730559 C421.128184,285.730559 421.364832,285.613915 421.522597,285.419509 C421.680362,285.225102 421.759244,284.991814 421.759244,284.758527 C421.759244,284.136426 421.443714,283.825375 420.812654,283.825375 Z M295.420605,273.831673 L295.342155,273.831673 C295.028355,273.831673 294.793006,273.98689 294.557656,274.297326 C293.498582,276.121133 292.008034,277.479287 290.125236,278.371788 C288.791588,278.992659 287.37949,279.303094 285.928166,279.303094 C285.426087,279.303094 284.949112,279.278259 284.457074,279.208722 L284.084594,279.147876 L283.888469,279.147876 C283.574669,279.147876 283.339319,279.225485 283.143195,279.458311 C282.986295,279.652334 282.907845,279.88516 282.907845,280.156791 C282.907845,280.2344 282.907845,280.350813 282.94707,280.544835 C282.986295,280.738857 283.18242,280.85527 283.535444,280.971683 C284.319943,281.088096 285.104442,281.165705 285.849716,281.165705 C287.575614,281.165705 289.419187,280.738857 291.34121,279.88516 C293.263233,279.031463 294.910681,277.479287 296.244329,275.267436 C296.322779,275.112218 296.362004,274.957001 296.362004,274.801783 C296.362004,274.607761 296.283554,274.413739 296.126654,274.219717 C295.969754,274.025695 295.734405,273.870477 295.420605,273.831673 Z M290.439036,256.253277 L290.360586,256.253277 C290.321361,256.253277 290.164461,256.330886 289.929112,256.447299 C289.693762,256.563713 289.379962,256.796539 289.026938,257.106974 C288.320888,257.766649 287.732514,258.426324 287.22259,259.085999 C286.712665,259.745674 286.163516,260.482958 285.614367,261.29785 C284.633743,262.811222 283.653119,264.402202 282.71172,265.993183 C280.946597,269.058731 279.495274,272.007866 278.35775,274.879392 C278.318526,274.957001 278.279301,275.034609 278.279301,275.112218 C278.240076,275.228631 278.240076,275.30624 278.200851,275.383849 C278.98535,275.771893 279.612949,276.315155 280.083648,277.013634 C281.299622,277.324069 282.201796,277.479287 282.79017,277.479287 C283.378544,277.479287 284.084594,277.440482 284.908318,277.362874 C285.732042,277.285265 286.594991,277.091243 287.418715,276.819612 C288.242439,276.547981 289.223062,276.082328 290.282136,275.345045 C291.34121,274.607761 292.243384,273.754064 293.067108,272.706345 C293.851607,271.658626 294.361531,270.45569 294.636106,269.019927 C294.910681,267.622968 295.028355,266.575249 295.028355,265.87677 C295.028355,265.217095 294.98913,264.596224 294.910681,264.052963 C294.793006,263.509701 294.714556,263.044048 294.636106,262.694809 C294.557656,262.345569 294.400756,261.841112 294.165406,261.103828 C293.890832,260.366544 293.498582,259.629261 292.988658,258.814368 C292.478733,257.999476 292.008034,257.41741 291.57656,257.029365 C291.145085,256.641321 290.831285,256.408495 290.674386,256.330886 C290.556711,256.292082 290.478261,256.253277 290.439036,256.253277 Z M326.879017,269.175144 C326.643667,269.175144 326.290643,269.291557 325.780718,269.524384 C325.270794,269.75721 324.44707,270.72732 323.231096,272.473519 C321.934494,274.342597 321.127719,275.796325 320.744684,276.802013 L320.681474,276.97483 L323.074197,277.013634 C325.074669,277.013634 327.075142,276.97483 329.075614,276.858416 C329.036389,273.249607 328.761815,270.998951 328.212665,270.10645 C327.820416,269.485579 327.388941,269.175144 326.879017,269.175144 Z M237.297254,257.404311 C237.06462,257.404311 236.71567,257.443501 236.211632,257.482691 C235.707593,257.561071 235.281099,257.678641 234.893376,257.796212 C234.466882,257.952972 234.07916,258.148922 233.652666,258.384063 C233.226171,258.619203 232.877221,258.815153 232.644588,258.971914 C232.373183,259.128674 232.140549,259.324624 231.946688,259.520575 C231.747288,259.722124 231.490917,259.981258 231.177574,260.322657 L231.016155,260.500327 L230.705977,260.813847 C230.628433,260.931417 230.550889,261.009798 230.434572,261.127368 C230.347334,261.215545 230.281906,261.303723 230.221931,261.375367 L230.163166,261.440888 L230.085622,261.558459 C229.465267,262.38145 228.883683,263.282822 228.340872,264.262573 C227.798061,265.281515 227.332795,266.261267 226.9063,267.162639 C226.402262,268.259961 225.859451,269.592423 225.31664,271.160026 C224.84168,272.531679 224.42609,273.783312 224.043896,274.914925 L223.882068,275.392554 L224.386107,275.392554 C226.247173,275.392554 227.914378,275.274984 229.504039,275.000653 C231.054927,274.726323 231.946688,274.530372 232.179321,274.412802 C232.365428,274.318746 232.601163,274.199608 232.886527,274.055389 L233.109855,273.942521 L233.264943,273.864141 C235.552504,272.649249 237.684976,270.728935 239.739903,268.02482 C240.20517,267.319399 240.55412,266.731548 240.786753,266.261267 C240.980614,265.790986 241.252019,264.772044 241.523425,263.243632 C241.600969,262.734161 241.678514,262.26388 241.678514,261.793599 C241.678514,260.931417 241.44588,260.108426 240.941842,259.363815 C240.476575,258.619203 239.85622,258.070542 239.042003,257.757022 C238.46042,257.521881 237.878837,257.404311 237.297254,257.404311 Z M297.381853,270.610907 C296.950378,270.649712 296.636578,270.882538 296.518904,271.231778 C296.440454,271.386995 296.440454,271.581017 296.440454,271.736235 C296.440454,271.891453 296.479679,272.124279 296.597353,272.357105 C296.715028,272.628736 296.950378,272.745149 297.381853,272.745149 C297.813327,272.706345 298.127127,272.512323 298.244802,272.163083 C298.323251,272.007866 298.323251,271.852648 298.323251,271.697431 C298.323251,271.503408 298.284026,271.309386 298.166352,271.037756 C298.048677,270.766125 297.774102,270.649712 297.381853,270.610907 Z M261.020321,255.865233 C260.863422,255.865233 260.667297,255.942842 260.431947,256.020451 C260.196597,256.136864 260.039698,256.369691 260.000473,256.757735 C259.725898,259.085999 259.608223,261.453068 259.608223,263.781332 C259.608223,266.109596 259.725898,268.476665 260.000473,270.804929 C260.039698,271.231778 260.235822,271.503408 260.549622,271.619822 C260.706522,271.697431 260.902647,271.697431 261.059546,271.697431 C261.216446,271.697431 261.334121,271.697431 261.491021,271.619822 C261.731274,271.51796 261.8514,271.32697 261.877678,271.04685 L261.88327,270.921342 L261.88327,270.804929 C261.569471,268.399056 261.451796,266.031987 261.451796,263.626114 C261.451796,261.66372 261.538251,259.701326 261.735862,257.738932 L261.844045,256.757735 L261.844045,256.680126 C261.844045,256.330886 261.726371,256.09806 261.451796,255.981647 C261.294896,255.904038 261.177221,255.865233 261.020321,255.865233 Z M346.899535,269.076716 L346.821395,269.076716 C346.469767,269.076716 346.235349,269.154778 346.07907,269.349933 C345.922791,269.545087 345.844651,269.740242 345.844651,269.935397 C345.844651,270.130552 345.883721,270.286676 345.96186,270.48183 C346.00093,270.598923 346.07907,270.716016 346.11814,270.833109 C346.157209,270.833109 346.157209,270.833109 346.157209,270.87214 C346.293953,271.111205 346.490523,271.26062 346.746919,271.294238 L346.860465,271.30148 L347.173023,271.30148 C347.368372,271.30148 347.524651,271.184388 347.68093,270.989233 C347.837209,270.794078 347.915349,270.637954 347.915349,270.442799 C347.915349,270.247645 347.876279,270.091521 347.79814,269.896366 C347.75907,269.857335 347.72,269.779273 347.68093,269.740242 C347.64186,269.66218 347.64186,269.584118 347.602791,269.545087 C347.407442,269.23284 347.173023,269.076716 346.899535,269.076716 Z M323.074197,259.706869 C322.917297,259.706869 322.760397,259.745674 322.603497,259.823283 C319.112476,261.763503 316.523629,264.518616 314.758507,268.088621 C314.680057,268.282643 314.640832,268.437861 314.640832,268.593078 C314.640832,268.748296 314.680057,268.903513 314.797732,269.058731 C315.033081,269.369166 315.307656,269.524384 315.660681,269.524384 C315.935255,269.524384 316.170605,269.369166 316.36673,269.058731 C317.974953,265.760357 320.367675,263.23807 323.544896,261.453068 C323.858696,261.259046 324.015595,261.026219 324.015595,260.754588 C324.015595,260.366544 323.897921,260.094913 323.701796,259.939696 C323.466446,259.784478 323.270321,259.706869 323.074197,259.706869 Z M343.969302,254.088829 C343.813023,254.088829 343.695814,254.12786 343.539535,254.205922 C343.226977,254.362046 343.070698,254.635262 343.070698,255.025572 C343.226977,258.694482 343.695814,262.324361 344.43814,265.915209 C344.555349,266.305518 344.672558,266.500673 344.867907,266.539704 C345.063256,266.578735 345.180465,266.578735 345.258605,266.578735 C345.532093,266.578735 345.766512,266.500673 345.96186,266.344549 C346.166977,266.207941 346.252442,265.981683 346.270603,265.718072 L346.274419,265.602961 L346.274419,265.407806 C345.532093,262.012113 345.102326,258.538358 344.985116,255.025572 C344.946047,254.635262 344.789767,254.401077 344.555349,254.283984 C344.32093,254.166891 344.125581,254.088829 343.969302,254.088829 Z M326.212193,258.581542 C325.584594,258.65915 325.270794,259.00839 325.270794,259.668065 C325.270794,260.366544 325.584594,260.715784 326.212193,260.715784 C326.839792,260.638175 327.153592,260.288936 327.153592,259.590456 C327.153592,258.930781 326.839792,258.581542 326.212193,258.581542 Z M235.12601,248.116264 L235.048465,248.116264 C232.644588,248.312214 230.473344,249.056826 228.534733,250.271718 C226.557351,251.5258 224.96769,253.210973 223.765751,255.327237 C223.688207,255.523187 223.649435,255.679948 223.649435,255.836708 C223.649435,255.993468 223.688207,256.150229 223.765751,256.267799 C223.931918,256.502939 224.098084,256.651702 224.264251,256.714086 L224.347334,256.73808 L224.696284,256.73808 C224.96769,256.73808 225.200323,256.581319 225.394184,256.267799 C226.441034,254.504246 227.798061,253.054213 229.465267,251.956891 C231.132472,250.859569 232.993538,250.193338 235.048465,249.997387 C235.436187,249.958197 235.668821,249.801437 235.785137,249.566297 C235.901454,249.331156 235.940226,249.135206 235.940226,248.978445 C235.940226,248.821685 235.901454,248.704115 235.82391,248.547355 C235.707593,248.273024 235.47496,248.116264 235.12601,248.116264 Z M366.082791,250.615074 C365.106047,250.615074 364.168372,250.732167 363.191628,251.005384 C360.808372,251.629879 358.776744,252.9179 357.174884,254.830417 C357.018605,255.064603 356.940465,255.259758 356.940465,255.454913 C356.940465,255.572005 356.979535,255.689098 357.018605,255.806191 C357.135814,256.118439 357.292093,256.313594 357.487442,256.391655 C357.682791,256.469717 357.83907,256.508748 357.87814,256.508748 C358.112558,256.508748 358.307907,256.391655 358.503256,256.15747 C359.948837,254.479139 361.355349,253.425303 362.76186,253.074024 C364.168372,252.722746 365.262326,252.527591 366.043721,252.527591 C367.293953,252.527591 368.505116,252.761777 369.755349,253.269179 C369.911628,253.30821 370.028837,253.347241 370.146047,253.347241 C370.341395,253.347241 370.536744,253.269179 370.653953,253.113055 C370.778977,252.956931 370.853991,252.775828 370.878995,252.569744 L370.888372,252.410498 L370.888372,252.215343 C370.849302,251.864065 370.614884,251.629879 370.263256,251.434724 C368.856744,250.888291 367.489302,250.615074 366.082791,250.615074 Z M409.769104,246.343793 L409.453574,246.382674 C405.391126,247.74352 402.117502,250.193042 399.711586,253.731241 C399.593262,253.925648 399.553821,254.081173 399.553821,254.236698 C399.553821,254.392224 399.593262,254.508868 399.672145,254.625512 C399.869351,254.936562 400.184881,255.092087 400.579293,255.092087 C400.894823,255.092087 401.131471,254.975443 401.368118,254.664393 C403.497946,251.592769 406.377157,249.415416 409.966311,248.210095 C410.400164,248.015689 410.597371,247.74352 410.597371,247.315825 C410.597371,247.043656 410.518488,246.810368 410.360723,246.615962 C410.202958,246.421555 410.005752,246.343793 409.769104,246.343793 Z M373.154419,252.566622 C372.724651,252.605653 372.451163,252.761777 372.333953,253.034993 C372.255814,253.30821 372.216744,253.542396 372.216744,253.69852 C372.216744,253.893674 372.255814,254.088829 372.333953,254.283984 C372.451163,254.635262 372.724651,254.830417 373.154419,254.830417 C373.584186,254.791386 373.857674,254.635262 373.974884,254.362046 C374.053023,254.088829 374.092093,253.893674 374.092093,253.69852 C374.092093,253.503365 374.053023,253.30821 373.974884,253.113055 C373.818605,252.761777 373.545116,252.605653 373.154419,252.566622 Z M261.844045,250.89827 C261.726371,250.89827 261.647921,250.937074 261.569471,250.937074 C261.137996,251.053487 260.902647,251.325118 260.784972,251.674358 C260.745747,251.790771 260.745747,251.907184 260.745747,251.984793 C260.745747,252.217619 260.824197,252.450446 260.941871,252.683272 C261.113481,252.920949 261.345153,253.039788 261.663166,253.065784 L261.80482,253.071316 L261.922495,253.071316 C262.43242,252.993707 262.746219,252.799685 262.863894,252.48925 C262.903119,252.334033 262.942344,252.178815 262.942344,252.023597 C262.942344,251.86838 262.903119,251.751966 262.863894,251.596749 C262.746219,251.325118 262.550095,251.131096 262.314745,251.014683 C262.157845,250.937074 262.000945,250.89827 261.844045,250.89827 Z M237.878837,247.410843 C237.568659,247.410843 237.336026,247.489223 237.180937,247.685173 C237.025848,247.881123 236.948304,248.116264 236.948304,248.351404 C236.948304,248.586545 237.025848,248.782495 237.180937,248.978445 C237.336026,249.174396 237.568659,249.291966 237.878837,249.291966 C238.150242,249.291966 238.382876,249.174396 238.537964,248.978445 C238.693053,248.782495 238.770598,248.586545 238.770598,248.351404 C238.770598,248.116264 238.693053,247.881123 238.537964,247.685173 C238.382876,247.489223 238.150242,247.410843 237.878837,247.410843 Z M339.191634,202.499393 C342.186772,202.8862 345.215544,202.728654 348.214161,203.046569 C349.227231,203.153859 350.250739,203.230655 351.216257,203.575676 C352.198014,203.926907 352.64511,204.494413 352.476361,205.419925 C351.888931,208.638045 352.225847,211.822283 352.843431,214.978851 C353.178971,216.693012 353.45229,218.416861 353.710451,220.142595 L354.220509,223.594268 C354.479377,225.319049 354.754463,227.040516 355.092829,228.750865 C355.983542,233.253634 356.187663,237.801578 356.58025,242.341616 C356.650417,243.153628 356.777413,243.94983 356.931664,244.750548 C357.252928,246.42031 356.410925,247.096799 355.045862,246.988944 C354.354632,246.93417 353.655284,246.979344 352.959414,246.979344 C350.58555,247.046592 348.257695,246.597693 345.910059,246.376364 L345.205108,246.317537 L343.541981,246.193306 C342.193154,246.09844 341.501923,245.488583 341.401022,244.185863 C341.237493,242.070002 341.151669,239.948495 340.98408,237.832634 C340.604831,233.057123 339.790663,228.333565 339.120888,223.59363 C338.336295,218.040553 337.707694,212.480136 337.866003,206.860992 C337.891518,205.964278 337.874121,205.095233 337.364977,204.247646 C336.854093,203.396106 337.35106,202.63661 338.358911,202.501651 C338.63204,202.464947 338.918506,202.463818 339.191634,202.499393 Z M412.214462,244.944065 C411.622843,244.944065 411.307313,245.255116 411.307313,245.916098 C411.307313,246.538199 411.622843,246.84925 412.214462,246.84925 C412.806081,246.84925 413.121611,246.538199 413.121611,245.916098 C413.121611,245.255116 412.806081,244.944065 412.214462,244.944065 Z M310.63712,187.378128 C312.030195,187.571406 312.520298,188.275531 312.286889,189.654707 C312.03417,191.146771 311.955798,192.644536 311.997824,194.151424 C312.022244,195.032295 312.050072,195.065362 312.95134,195.004357 C313.947448,194.93651 314.938445,194.800816 315.934554,194.732399 C316.521769,194.692489 317.113528,194.720426 317.703583,194.727268 C319.184683,194.744942 321.021862,196.566548 320.918502,198.2097 C320.777661,200.442949 321.101369,202.664225 321.507422,204.868966 C321.832832,206.632987 321.394976,207.12616 319.590736,207.36448 C317.739359,207.609071 315.88117,207.667225 314.018435,207.690031 C313.61011,207.694591 313.200651,207.704854 312.795165,207.747615 C312.297111,207.800639 311.96886,207.988215 311.98249,208.60568 C312.081874,213.071038 311.75476,217.543808 312.178986,222.001754 C312.369803,224.010366 313.042205,225.908942 313.750384,227.788132 C314.05535,228.596025 314.599405,229.182132 315.350745,229.57724 C316.15774,230.001426 316.714289,229.844636 317.183948,229.057268 C317.442914,228.62339 317.576373,228.138769 317.686546,227.647306 C318.386776,224.531476 318.967176,221.399112 319.075646,218.19434 C319.116536,216.983357 319.447058,216.625308 320.643637,216.329403 C321.354656,216.153799 322.076465,216.080251 322.803954,216.07626 C325.075014,216.063147 327.346072,216.044902 329.617131,216.063147 C331.160133,216.075691 331.657619,216.531234 331.797892,218.065488 C331.977351,220.022789 332.544122,221.910531 332.770716,223.859279 C333.051832,226.277993 333.021208,228.702419 332.955366,231.124138 L332.909289,232.738125 C332.87493,233.940923 332.390757,235.035663 331.869421,236.103101 L331.583851,236.683117 L331.442952,236.972005 C331.027244,237.83292 330.622326,238.694976 330.242964,239.572426 C329.777848,240.648285 329.148608,241.385479 327.848101,241.719013 C326.428335,242.083334 325.096594,242.892936 323.808013,243.648945 C322.225826,244.577137 320.560155,245.02356 318.746261,244.999043 C318.493381,244.995622 318.240465,244.994389 317.98753,244.994284 L316.469799,244.998729 C315.457978,244.999427 314.446315,244.9843 313.435766,244.885584 C311.190831,244.666648 309.248589,243.845643 307.606772,242.239551 C306.115449,240.780555 304.508841,239.454403 303.136778,237.855723 C302.020274,236.554658 301.049154,235.214252 300.533494,233.578512 C299.575436,230.538509 298.831478,227.435793 297.820604,224.408334 C297.328797,222.936796 297.283365,221.359781 297.279957,219.805572 C297.273142,216.750176 297.283932,213.695352 297.280524,210.639956 C297.279956,210.236295 297.375364,209.823512 297.147066,209.273324 C296.087352,209.399895 295.056034,209.523046 294.024715,209.645626 C293.754392,209.678124 293.484067,209.719175 293.212608,209.73856 C290.908043,209.904471 290.339001,209.480855 290.164085,207.169496 C289.863664,203.204724 289.990307,199.240522 290.425323,195.288863 C290.54572,194.193048 290.984143,193.812191 292.147784,193.771711 C293.736218,193.716408 295.32579,193.745484 296.913089,193.877187 C297.866604,193.956436 297.904085,193.933631 297.981888,192.968378 C298.080704,191.73687 298.255619,190.524747 298.589549,189.334289 C298.83091,188.473943 299.326124,188.030941 300.238749,187.759554 C303.686511,186.735007 307.153581,186.894077 310.63712,187.378128 Z M372.002526,190.022802 C373.627507,190.03813 373.960967,190.403136 374.310789,192.043681 C374.568077,193.249397 374.679795,194.462492 374.76048,195.685805 C374.922412,198.14492 375.61698,200.504695 376.134379,202.895123 C376.968309,206.750121 377.662312,210.638042 378.790206,214.42492 C378.901924,214.801282 378.943677,215.204322 379.270366,215.574438 C379.474617,215.06865 379.387162,214.623035 379.387725,214.192747 C379.395061,209.925626 379.371363,205.658506 379.399011,201.391953 C379.415373,198.891966 379.311555,196.401629 379.069501,193.914699 C379.030005,193.509388 379.008,193.098968 379.020977,192.692521 C379.046368,191.877358 379.449228,191.342052 380.234071,191.08263 C380.801121,190.895302 381.378892,190.829455 381.966819,190.830022 C385.756747,190.83286 389.546676,190.824912 393.336041,190.85443 C394.860028,190.866351 395.222828,191.41755 394.882033,192.915045 C394.566441,194.304684 394.409334,195.717785 394.275799,197.132989 L394.145126,198.548103 L394.076313,199.254702 C393.478229,205.124333 393.148154,211.0127 392.866604,216.907309 C392.609315,222.300105 392.133106,227.682683 391.709934,233.066396 C391.559849,234.971472 391.587497,236.87598 391.539537,238.781057 C391.494399,240.570897 391.145705,240.925119 389.374024,240.943852 C386.712554,240.972236 384.05052,240.98075 381.388484,240.999484 C378.814469,241.017649 376.264717,240.549895 373.686752,240.629936 C372.701043,240.66059 372.186466,240.048082 371.737339,239.219862 C369.953246,235.929688 368.733383,232.416992 367.7725,228.826525 C366.331459,223.440541 365.069277,218.006305 363.686351,212.603858 C362.730547,208.870908 361.47965,205.218567 360.638948,201.453261 C360.431311,200.523997 360.247936,199.592461 360.130013,198.644465 C359.981056,197.452942 359.273512,196.46748 358.837927,195.380406 C358.753857,195.170938 358.639318,194.973391 358.534935,194.772438 C357.511423,192.800946 357.923874,191.64632 360.056097,190.780634 C361.272011,190.286766 362.565789,190.025642 363.881572,190.014288 C366.58818,189.991013 369.295918,189.997825 372.002526,190.022802 Z M266.034357,191.05389 C268.545414,191.304466 271.066621,191.462725 273.544407,191.982227 C275.151528,192.319387 276.672372,192.913431 277.997542,193.893947 C280.188866,195.515526 282.239215,197.307978 283.90047,199.512706 C284.448582,200.240352 284.927899,201.029352 285.530711,201.705392 C287.005316,203.359081 287.53482,205.33789 287.693276,207.497319 C288.025409,212.029482 288.077288,216.570246 287.899659,221.102984 C287.720339,225.678726 287.726542,230.26479 287.301923,234.831358 C287.215646,235.754534 286.854184,236.31532 286.01115,236.720715 C284.748572,237.327947 283.390696,237.403062 282.067217,237.589418 C278.404109,238.106053 274.798518,238.958701 271.143304,239.485657 C267.753124,239.974195 264.323471,240.278097 260.907916,239.630153 C259.07749,239.283245 257.375633,238.545852 255.762873,237.607767 C254.967771,237.145033 254.314773,236.509131 253.839404,235.710956 C252.19281,232.946016 250.874406,230.054927 250.536065,226.784246 C250.450915,225.958549 250.424412,225.139731 250.516328,224.315754 C250.79264,221.846688 251.42985,219.458472 252.114991,217.084017 C253.104639,213.65393 257.928259,209.633814 262.453575,209.641268 C265.710111,209.647002 268.942398,209.762829 272.088973,210.731877 C272.209648,210.769148 272.351188,210.736464 272.658515,210.736464 L272.638892,210.344328 L272.602905,209.56051 C272.528794,207.994436 272.415924,206.441574 271.797436,204.970914 C271.297881,203.782221 270.401469,203.021108 269.122927,202.846015 L268.893339,202.821232 L268.623795,202.799442 C265.053731,202.521342 264.313327,202.81263 261.875578,205.488694 C261.385548,206.027119 260.92202,206.589625 260.451726,207.145824 C259.285576,208.526001 258.809643,208.587355 257.174327,207.987577 C255.2283,207.274266 253.258589,206.640656 251.353164,205.801198 C251.127152,205.70177 250.888097,205.631861 250.645225,205.568217 L250.157127,205.442392 C249.818433,205.351245 249.484243,205.242279 249.179276,205.053193 L249,204.929628 L249,203.828697 C249.440972,203.543716 249.444355,203.057471 249.514279,202.615953 C249.630442,201.881425 249.861642,201.191623 250.227051,200.552281 C252.810851,196.033306 256.501591,192.932352 261.487614,191.509744 C262.972932,191.086001 264.482499,190.899071 266.034357,191.05389 Z M411.553724,194.674148 C415.365743,194.004676 419.128124,193.671917 422.957832,194.450991 C426.303691,195.131198 429.423032,196.340203 432.295884,198.14919 C433.928873,199.176844 435.036932,200.677366 435.652584,202.476184 C436.90728,206.142745 437.477286,209.929641 437.445904,213.799586 C437.432781,215.46112 437.023677,215.750376 435.34276,215.95263 C433.573403,216.165619 431.792063,216.133416 430.02556,216.349794 C429.215342,216.449226 428.374883,216.496118 427.568659,216.400641 C424.874399,216.080876 422.194401,216.183698 419.514405,216.507417 C417.998954,216.690463 416.479192,216.713313 414.958839,216.713564 L413.438426,216.711379 L413.438426,216.711379 L412.678329,216.714192 C411.512071,216.723795 411.497806,216.73114 411.497806,217.923761 L411.497806,217.923761 L411.495306,218.503185 C411.491067,219.563476 411.5158,220.612036 412.016459,221.635518 C413.487975,224.643341 416.579928,226.406001 419.910953,226.082848 C420.802194,225.996409 421.324842,225.512807 421.676888,224.785709 C421.994128,224.130361 422.166442,223.426426 422.228634,222.699894 C422.252027,222.429846 422.251458,222.156971 422.291968,221.889748 C422.637737,219.603937 422.7587,219.479082 425.074098,219.154798 C426.835467,218.907912 428.596836,218.663851 430.36277,218.454817 C431.405783,218.331657 432.455072,218.310755 433.496944,218.524307 C433.960579,218.619543 434.429057,218.633425 434.898333,218.633524 L435.602341,218.631782 L435.602341,218.631782 L435.953846,218.638995 C437.154909,218.683062 437.525213,218.973448 437.715215,220.10223 C438.465527,224.561425 437.768284,228.782207 435.205256,232.545375 C433.425628,235.159424 430.952749,236.997223 427.790045,237.770648 C425.735399,238.273458 423.705858,237.840702 421.68716,237.507944 C421.190188,237.425461 420.708622,237.335068 420.206516,237.364446 C417.989256,237.49382 415.843318,237.123209 413.744168,236.444697 C410.398309,235.363372 407.188245,233.962283 404.068335,232.35781 C402.972829,231.794549 401.961197,231.099088 401.004341,230.323969 C399.47862,229.087846 398.4299,227.552863 397.833648,225.682295 C396.866521,222.647354 396.094531,217.9989 396.039185,214.270194 C395.616387,207.7862 398.650142,202.615162 403.438989,198.289298 C405.713305,196.23512 408.497147,195.210856 411.553724,194.674148 Z M232.957832,194.450991 C236.303691,195.131198 239.423032,196.340203 242.295884,198.14919 C243.928873,199.176844 245.036932,200.677366 245.652584,202.476184 C246.90728,206.142745 247.477286,209.929641 247.445904,213.799586 C247.432781,215.46112 247.023677,215.750376 245.34276,215.95263 C243.573403,216.165619 241.792063,216.133416 240.02556,216.349794 C239.215342,216.449226 238.374883,216.496118 237.568659,216.400641 C234.874399,216.080876 232.194401,216.183698 229.514405,216.507417 C227.998954,216.690463 226.479192,216.713313 224.958839,216.713564 L223.438426,216.711379 L222.678329,216.714192 C221.560665,216.723395 221.500994,216.730524 221.497962,217.780771 L221.497806,217.923761 L221.495306,218.503185 C221.491067,219.563476 221.5158,220.612036 222.016459,221.635518 C223.487975,224.643341 226.579928,226.406001 229.910953,226.082848 C230.802194,225.996409 231.324842,225.512807 231.676888,224.785709 C231.994128,224.130361 232.166442,223.426426 232.228634,222.699894 C232.252027,222.429846 232.251458,222.156971 232.291968,221.889748 C232.637737,219.603937 232.7587,219.479082 235.074098,219.154798 C236.835467,218.907912 238.596836,218.663851 240.36277,218.454817 C241.405783,218.331657 242.455072,218.310755 243.496944,218.524307 C243.960579,218.619543 244.429057,218.633425 244.898333,218.633524 L245.602341,218.631782 L245.953846,218.638995 C247.154909,218.683062 247.525213,218.973448 247.715215,220.10223 C248.465527,224.561425 247.768284,228.782207 245.205256,232.545375 C243.425628,235.159424 240.952749,236.997223 237.790045,237.770648 C235.735399,238.273458 233.705858,237.840702 231.68716,237.507944 C231.190188,237.425461 230.708622,237.335068 230.206516,237.364446 C227.989256,237.49382 225.843318,237.123209 223.744168,236.444697 C220.398309,235.363372 217.188245,233.962283 214.068335,232.35781 C212.972829,231.794549 211.961197,231.099088 211.004341,230.323969 C209.47862,229.087846 208.4299,227.552863 207.833648,225.682295 C206.866521,222.647354 206.094531,217.9989 206.039185,214.270194 C205.616387,207.7862 208.650142,202.615162 213.438989,198.289298 C215.713305,196.23512 218.497147,195.210856 221.553724,194.674148 C225.365743,194.004676 229.128124,193.671917 232.957832,194.450991 Z M266.939419,219.773838 C264.887379,219.822577 263.3327,221.003785 262.697746,222.976285 C262.387037,223.941319 262.257903,224.93445 262.279331,225.952238 C262.309782,227.386315 262.932894,228.385754 264.269342,228.913856 C265.065571,229.228079 265.847704,229.579575 266.633219,229.920749 C266.972687,230.068114 267.323998,230.11628 267.688843,230.099651 C268.774355,230.050339 269.82434,229.822699 270.870379,229.523384 C271.424695,229.36512 271.557777,229.063512 271.535785,228.535409 C271.503079,227.712579 271.527327,226.887454 271.527327,226.063476 C271.525635,224.500384 271.377328,222.951627 271.137105,221.411471 C270.944815,220.178658 270.726022,219.93611 269.504045,219.82315 C268.654808,219.744595 267.793731,219.753768 266.939419,219.773838 Z M224.238287,203.127579 C222.452384,203.323052 219.604639,206.669284 220.214014,209.50762 C222.451244,208.776002 224.773488,208.687305 227.096875,208.650018 C228.370972,208.62968 229.645639,208.676006 230.860967,208.200314 C230.575108,204.717363 227.907093,202.725895 224.238287,203.127579 Z M420.860967,208.200314 C420.575108,204.717363 417.907093,202.725895 414.238287,203.127579 C412.452384,203.323052 409.604639,206.669284 410.214014,209.50762 C412.451244,208.776002 414.773488,208.687305 417.096875,208.650018 C418.370972,208.62968 419.645639,208.676006 420.860967,208.200314 Z M349.440633,184.427898 C350.620132,184.489447 351.289327,185.324611 351.375151,186.697351 C351.535201,189.265522 351.645381,191.837081 351.763099,194.40751 C351.792093,195.038825 351.774117,195.671833 351.767738,196.304276 C351.750341,198.07794 351.412265,198.401502 349.535736,198.408843 C347.54149,198.416184 345.547245,198.410537 343.552999,198.410537 C341.51236,198.410537 339.471142,198.421832 337.431085,198.406585 C335.883355,198.395856 335.349856,197.972345 335.021637,196.524501 C334.80186,195.554943 334.624992,194.576351 334.401154,193.607923 C334.239364,192.907154 334.034663,192.228407 333.697746,191.567731 C333.109157,190.414651 333.067985,189.128872 333.027972,187.862291 C333.007675,187.230412 332.984479,186.596841 333.014053,185.966091 C333.075522,184.658289 333.661213,184.07949 334.998442,184.037138 C336.110675,184.002128 337.224646,184.027538 338.337457,184.026974 C340.238921,184.026409 342.143284,184.08796 344.041267,184.00947 C345.865604,183.933802 347.636592,184.333597 349.440633,184.427898 Z M450,267.4624 C450,266.4824 449.722772,265.5416 449.207921,264.64 C448.693069,263.7384 447.980198,263.0328 447.108911,262.5232 C446.277228,262.0136 445.326733,261.7784 444.376238,261.7784 L444.217822,261.7784 C442.594059,261.896 441.247525,262.4448 440.178218,263.464 C439.108911,264.5224 438.514851,265.8552 438.435644,267.4624 L438.118812,290.316 C438.118812,291.296 438.39604,292.2368 438.910891,293.1384 C439.425743,294.04 440.138614,294.7456 440.970297,295.2552 C441.841584,295.7648 442.752475,296 443.742574,296 L443.90099,296 C445.524752,295.8824 446.871287,295.3336 447.940594,294.2752 C449.009901,293.256 449.60396,291.9232 449.643564,290.316 L449.80198,278.9088 C449.841584,275.1064 449.920792,271.2648 450,267.4624 Z M438.673267,255.7024 C439.188119,256.604 439.861386,257.2312 440.693069,257.6624 C441.524752,258.0936 442.118812,258.3288 442.475248,258.4464 C442.831683,258.564 443.267327,258.6424 443.742574,258.6424 L444.019802,258.6424 C446.237624,258.6032 447.940594,257.6232 449.128713,255.7808 C449.643564,254.8792 449.920792,253.8992 449.920792,252.8408 C449.881188,251.7824 449.60396,250.7632 449.089109,249.8616 C448.732673,249.1952 448.257426,248.6464 447.70297,248.2544 C447.148515,247.8624 446.673267,247.588 446.237624,247.392 C445.80198,247.2352 445.405941,247.1176 445.009901,247.0784 C444.613861,247.0392 444.29703,247 444.019802,247 L443.623762,247 C443.227723,247.0392 442.633663,247.1176 441.881188,247.3136 C441.089109,247.5096 440.336634,247.9408 439.623762,248.6464 C438.712871,249.5872 438.237624,250.4496 438.158416,251.2728 C438.039604,252.096 438,252.6056 438,252.8408 C438,253.9776 438.237624,254.9576 438.673267,255.7024 Z M442,249.9008 C441.960396,249.8616 441.920792,249.8224 441.881188,249.7832 L441.80198,249.7048 C441.60396,249.4696 441.485149,249.2736 441.485149,249.0384 C441.485149,248.96 441.524752,248.8032 441.60396,248.6072 C441.683168,248.4112 441.881188,248.2544 442.19802,248.1368 C442.316832,248.0976 442.39604,248.0584 442.514851,248.0584 C442.712871,248.0584 442.950495,248.176 443.148515,248.372 L443.346535,248.568 C443.544554,248.764 443.623762,248.9992 443.623762,249.1952 C443.623762,249.2736 443.584158,249.4304 443.544554,249.6264 C443.465347,249.8224 443.267327,250.0184 442.950495,250.136 C442.871287,250.1752 442.752475,250.2144 442.673267,250.2144 C442.435644,250.2144 442.237624,250.0968 442,249.9008 Z M444.059406,255.1928 C444.455446,255.2712 444.693069,255.4672 444.732673,255.7808 L444.732673,255.9768 C444.732673,256.212 444.653465,256.4472 444.49505,256.6824 C444.29703,256.9176 444.019802,257.0352 443.663366,257.0352 L443.544554,257.0352 C442.079208,256.7216 441.049505,255.9768 440.376238,254.8008 C439.980198,254.1344 439.782178,253.4288 439.782178,252.684 C439.782178,252.096 439.90099,251.508 440.138614,250.92 C440.29703,250.5672 440.574257,250.3712 440.930693,250.332 L441.128713,250.332 C441.405941,250.332 441.60396,250.4104 441.80198,250.5672 C441.960396,250.6848 442.039604,250.8808 442.039604,251.0768 C442.039604,251.1944 442,251.312 441.960396,251.4296 C441.80198,251.8608 441.722772,252.2528 441.722772,252.6448 C441.722772,253.076 441.881188,253.5464 442.158416,254.0952 C442.475248,254.644 443.108911,254.9968 444.059406,255.1928 Z M440.415842,267.8936 C440.49505,267.4624 440.693069,267.188 441.009901,267.0704 C441.168317,266.992 441.326733,266.9528 441.485149,266.9528 C441.643564,266.9528 441.762376,266.992 441.920792,267.0704 C442.19802,267.188 442.316832,267.4232 442.316832,267.776 L442.316832,267.8936 C441.960396,270.716 441.762376,273.5776 441.762376,276.4 C441.762376,278.36 441.881188,280.3592 442.039604,282.3192 L442.039604,282.4368 C442.039604,282.7896 441.920792,283.0248 441.643564,283.1424 C441.485149,283.2208 441.326733,283.2208 441.168317,283.2208 C441.009901,283.2208 440.811881,283.1816 440.574257,283.1032 C440.336634,282.9856 440.178218,282.7504 440.138614,282.3192 C439.980198,280.3592 439.861386,278.36 439.861386,276.4 C439.861386,273.5776 440.059406,270.716 440.415842,267.8936 Z M440.534653,285.1808 C440.851485,285.1808 441.089109,285.2592 441.247525,285.4552 C441.405941,285.6512 441.485149,285.8864 441.485149,286.1216 C441.485149,286.3568 441.405941,286.592 441.247525,286.788 C441.089109,286.984 440.851485,287.1016 440.534653,287.1016 C440.257426,287.1016 440.019802,286.984 439.861386,286.788 C439.70297,286.592 439.623762,286.3568 439.623762,286.1216 C439.623762,285.8864 439.70297,285.6512 439.861386,285.4552 C440.019802,285.2592 440.257426,285.1808 440.534653,285.1808 Z M472.105116,272.433378 C472.300465,271.028264 472.534884,269.623149 472.808372,268.179004 C473.08186,266.734859 473.433488,265.446837 473.785116,264.275908 C474.136744,263.144011 474.683721,262.090175 475.504186,261.153432 C476.324651,260.25572 476.910698,259.709287 477.340465,259.514132 C477.770233,259.358008 478.043721,259.279946 478.2,259.279946 C478.825116,259.279946 479.606512,259.787349 480.505116,260.841184 C480.856744,261.270525 481.169302,261.816958 481.48186,262.402423 C481.755349,262.987887 481.989767,263.573351 482.185116,264.119785 C483.044651,266.656797 483.513488,268.686406 483.552558,270.130552 C483.591628,271.574697 483.630698,272.51144 483.630698,272.862719 C483.630698,275.087483 483.435349,277.273217 483.005581,279.419919 C482.341395,282.776581 481.403721,286.055182 480.231628,289.294751 C479.020465,292.53432 477.770233,295.695828 476.402791,298.857335 C476.207442,299.364738 476.129302,299.87214 476.129302,300.379542 C476.129302,300.769852 476.168372,301.160162 476.285581,301.550471 C476.52,302.448183 476.949767,303.228802 477.574884,303.97039 C478.2,304.711978 478.903256,305.219381 479.723721,305.570659 C480.466047,305.843876 481.208372,306 481.950698,306 C482.536744,306 483.122791,305.921938 483.708837,305.726783 C485.076279,305.336474 486.092093,304.516824 486.795349,303.228802 C486.834419,303.189771 487.420465,301.862719 488.475349,299.247645 C489.530233,296.671602 490.663256,293.666218 491.796279,290.270525 C492.929302,286.874832 493.749767,283.713324 494.257674,280.746972 C494.765581,277.780619 495,275.048452 495,272.589502 C495,271.574697 494.96093,270.559892 494.882791,269.545087 C494.648372,266.071332 493.827907,262.597577 492.421395,259.162853 C491.444651,256.781965 490.116279,254.674293 488.436279,252.839838 C486.756279,251.005384 484.99814,249.717362 483.20093,249.014805 C481.364651,248.351279 479.684651,248 478.16093,248 C477.184186,248 476.168372,248.117093 475.113488,248.312248 C472.730233,248.858681 470.698605,249.873486 469.018605,251.356662 C467.338605,252.878869 465.932093,254.635262 464.83814,256.703903 L464.447442,253.73755 C464.330233,252.761777 464.017674,251.825034 463.548837,250.927322 C463.04093,250.068641 462.415814,249.366083 461.634419,248.858681 C460.853023,248.351279 459.954419,248.078062 458.899535,248.078062 L458.743256,248.078062 C457.805581,248.117093 456.867907,248.39031 455.969302,248.897712 C455.070698,249.405114 454.328372,250.02961 453.820465,250.810229 C453.273488,251.590848 453,252.410498 453,253.269179 C453,253.425303 453,253.581427 453.03907,253.73755 C454.68,266.578735 457.102326,279.302826 460.345116,291.831763 C460.696744,293.041723 461.282791,293.978466 462.181395,294.641992 C463.04093,295.305518 463.822326,295.656797 464.486512,295.734859 C465.150698,295.812921 465.619535,295.851952 465.893023,295.851952 C466.713488,295.851952 467.494884,295.695828 468.237209,295.422611 C469.253023,295.071332 470.073488,294.485868 470.659535,293.666218 C471.245581,292.846568 471.51907,291.909825 471.51907,290.777927 L471.51907,290.348587 C471.362791,288.162853 471.284651,285.97712 471.284651,283.791386 C471.284651,282.971736 471.284651,282.113055 471.323721,281.293405 C471.40186,278.288022 471.675349,275.321669 472.105116,272.433378 Z M458.274419,265.407806 L458.274419,265.602961 C458.274419,265.915209 458.196279,266.188425 457.96186,266.344549 C457.766512,266.500673 457.532093,266.578735 457.258605,266.578735 C457.180465,266.578735 457.063256,266.578735 456.867907,266.539704 C456.672558,266.500673 456.555349,266.305518 456.43814,265.915209 C455.695814,262.324361 455.226977,258.694482 455.070698,255.025572 C455.070698,254.635262 455.226977,254.362046 455.539535,254.205922 C455.695814,254.12786 455.813023,254.088829 455.969302,254.088829 C456.125581,254.088829 456.32093,254.166891 456.555349,254.283984 C456.789767,254.401077 456.946047,254.635262 456.985116,255.025572 C457.102326,258.538358 457.532093,262.012113 458.274419,265.407806 Z M459.602791,269.545087 C459.64186,269.584118 459.64186,269.66218 459.68093,269.740242 C459.72,269.779273 459.75907,269.857335 459.79814,269.896366 C459.876279,270.091521 459.915349,270.247645 459.915349,270.442799 C459.915349,270.637954 459.837209,270.794078 459.68093,270.989233 C459.524651,271.184388 459.368372,271.30148 459.173023,271.30148 C458.977674,271.30148 458.899535,271.30148 458.860465,271.30148 C458.547907,271.30148 458.313488,271.145357 458.157209,270.87214 C458.157209,270.833109 458.157209,270.833109 458.11814,270.833109 C458.07907,270.716016 458.00093,270.598923 457.96186,270.48183 C457.883721,270.286676 457.844651,270.130552 457.844651,269.935397 C457.844651,269.740242 457.922791,269.545087 458.07907,269.349933 C458.235349,269.154778 458.469767,269.076716 458.821395,269.076716 L458.899535,269.076716 C459.173023,269.076716 459.407442,269.23284 459.602791,269.545087 Z M482.263256,251.434724 C482.614884,251.629879 482.849302,251.864065 482.888372,252.215343 L482.888372,252.410498 C482.888372,252.683715 482.810233,252.9179 482.653953,253.113055 C482.536744,253.269179 482.341395,253.347241 482.146047,253.347241 C482.028837,253.347241 481.911628,253.30821 481.755349,253.269179 C480.505116,252.761777 479.293953,252.527591 478.043721,252.527591 C477.262326,252.527591 476.168372,252.722746 474.76186,253.074024 C473.355349,253.425303 471.948837,254.479139 470.503256,256.15747 C470.307907,256.391655 470.112558,256.508748 469.87814,256.508748 C469.83907,256.508748 469.682791,256.469717 469.487442,256.391655 C469.292093,256.313594 469.135814,256.118439 469.018605,255.806191 C468.979535,255.689098 468.940465,255.572005 468.940465,255.454913 C468.940465,255.259758 469.018605,255.064603 469.174884,254.830417 C470.776744,252.9179 472.808372,251.629879 475.191628,251.005384 C476.168372,250.732167 477.106047,250.615074 478.082791,250.615074 C479.489302,250.615074 480.856744,250.888291 482.263256,251.434724 Z M485.154419,252.566622 C485.545116,252.605653 485.818605,252.761777 485.974884,253.113055 C486.053023,253.30821 486.092093,253.503365 486.092093,253.69852 C486.092093,253.893674 486.053023,254.088829 485.974884,254.362046 C485.857674,254.635262 485.584186,254.791386 485.154419,254.830417 C484.724651,254.830417 484.451163,254.635262 484.333953,254.283984 C484.255814,254.088829 484.216744,253.893674 484.216744,253.69852 C484.216744,253.542396 484.255814,253.30821 484.333953,253.034993 C484.451163,252.761777 484.724651,252.605653 485.154419,252.566622 Z M529.399663,263.347826 L526.956155,265.980978 C525.908938,267.065217 524.86172,267.994565 523.892074,268.807745 C522.883642,269.620924 521.758853,270.201766 520.517707,270.627717 C519.27656,271.014946 518.229342,271.20856 517.41484,271.20856 C517.065767,271.20856 516.755481,271.20856 516.445194,271.131114 C515.397976,270.9375 514.505902,270.511549 513.768971,269.853261 C513.03204,269.194973 512.411467,268.536685 511.984823,267.800951 C511.558179,267.10394 511.325464,266.290761 511.325464,265.32269 C511.325464,264.35462 511.519393,263.386549 511.907251,262.379755 C512.29511,261.411685 512.876897,260.52106 513.613828,259.746603 C514.350759,259.01087 515.010118,258.46875 515.630691,258.158967 C516.212479,257.849185 516.94941,257.616848 517.763912,257.423234 C518.578415,257.268342 519.160202,257.190897 519.509275,257.190897 C520.013491,257.190897 520.440135,257.22962 520.827993,257.268342 C521.564924,257.384511 522.301855,257.578125 523.116358,257.887908 C523.892074,258.236413 524.667791,258.623641 525.443508,259.127038 C526.180438,259.630435 526.72344,260.056386 527.033727,260.404891 C527.421585,260.830842 527.848229,261.179348 528.313659,261.48913 C528.740304,261.837636 529.360877,262.069973 530.136594,262.263587 L529.399663,263.347826 Z M540.337268,255.874321 C539.988196,255.913043 539.600337,255.951766 539.212479,256.029212 L539.134907,255.990489 C539.01855,255.913043 537.699831,254.673913 535.256324,252.311821 C532.77403,249.949728 530.136594,248.32337 527.305228,247.394022 C524.473862,246.464674 521.836425,246 519.470489,246 C518.306914,246 517.143339,246.077446 515.940978,246.27106 C513.613828,246.658288 511.480607,247.471467 509.50253,248.671875 C507.524452,249.872283 505.779089,251.421196 504.344013,253.241168 C502.870152,255.061141 501.745363,257.074728 500.969646,259.281929 C500.310287,261.101902 500,262.960598 500,264.858016 C500,265.206522 500,265.59375 500.038786,265.980978 C500.232715,268.265625 500.814503,270.472826 501.784148,272.563859 C502.753794,274.654891 504.111298,276.474864 505.817875,278.023777 C507.795953,279.805027 509.77403,281.005435 511.790894,281.663723 C513.768971,282.322011 515.669477,282.631793 517.453626,282.631793 C518.074199,282.631793 518.694772,282.593071 519.315346,282.515625 C521.758853,282.283288 524.124789,281.586277 526.490725,280.38587 C527.848229,279.688859 529.166948,278.875679 530.44688,277.907609 C531.726813,276.939538 532.929174,275.932745 534.053963,274.809783 C533.860034,276.01019 533.627319,277.249321 533.278246,278.565897 C532.929174,279.882473 532.580101,281.005435 532.231029,281.89606 C531.959528,282.476902 531.571669,283.290082 530.989882,284.296875 C530.408094,285.303668 529.942664,286.078125 529.554806,286.620245 C529.244519,287.007473 528.817875,287.472147 528.274874,288.052989 C527.693086,288.633832 527.072513,289.175951 526.335582,289.718071 C525.598651,290.26019 524.939292,290.647418 524.279933,290.918478 C523.620573,291.189538 522.767285,291.460598 521.681282,291.692935 C521.526138,291.731658 521.177066,291.731658 520.711636,291.731658 L519.858347,291.731658 C518.888702,291.692935 517.841484,291.383152 516.639123,290.841033 C515.436762,290.337636 514.505902,289.756793 513.846543,289.137228 C513.187184,288.556386 512.450253,288.246603 511.713322,288.20788 C510.937605,288.20788 510.510961,288.20788 510.472175,288.20788 C509.037099,288.20788 507.718381,288.75 506.593592,289.795516 C505.546374,290.918478 505.003373,291.886549 505.003373,292.661005 C504.964587,293.474185 504.964587,293.900136 504.964587,293.938859 C504.964587,295.410326 505.507589,296.688179 506.593592,297.772418 C508.765599,299.824728 511.015177,301.180027 513.342327,301.915761 C515.669477,302.651495 517.841484,303 519.897133,303 C520.595278,303 521.293423,302.961277 521.991568,302.883832 C524.745363,302.612772 527.421585,301.877038 529.98145,300.599185 C532.50253,299.360054 534.752108,297.694973 536.6914,295.565217 C538.824621,293.203125 540.492411,290.686141 541.772344,287.975543 C543.013491,285.303668 543.944351,282.476902 544.564924,279.533967 C545.146712,276.629755 545.53457,273.648098 545.728499,270.588995 C545.922428,267.529891 546,264.509511 546,261.527853 C546,260.52106 545.728499,259.591712 545.224283,258.701087 C544.720067,257.849185 544.021922,257.152174 543.20742,256.648777 C542.392917,256.14538 541.462057,255.874321 540.492411,255.874321 L540.337268,255.874321 Z M518.966273,249.949728 C518.694772,249.949728 518.462057,249.83356 518.306914,249.639946 C518.112985,249.446332 518.035413,249.252717 518.035413,248.981658 C518.035413,248.749321 518.112985,248.516984 518.306914,248.32337 C518.462057,248.129755 518.733558,248.05231 519.160202,248.05231 C519.431703,248.05231 519.664418,248.129755 519.858347,248.32337 C520.013491,248.516984 520.091062,248.749321 520.091062,248.981658 L520.091062,249.059103 C520.091062,249.29144 520.013491,249.485054 519.858347,249.678668 C519.664418,249.872283 519.392917,249.949728 518.966273,249.949728 Z M505.58516,261.837636 C505.507589,262.224864 505.313659,262.457201 505.003373,262.495924 L504.848229,262.495924 C504.576728,262.495924 504.344013,262.418478 504.150084,262.224864 C503.878583,262.03125 503.762226,261.76019 503.762226,261.411685 L503.762226,261.334239 C504.18887,258.507473 505.313659,256.029212 507.136594,253.899457 C508.920742,251.769701 511.17032,250.259511 513.846543,249.330163 C513.962901,249.29144 514.079258,249.29144 514.195616,249.29144 C514.389545,249.29144 514.583474,249.368886 514.738617,249.523777 C514.932546,249.756114 515.010118,250.027174 515.010118,250.298234 C515.010118,250.336957 515.010118,250.453125 514.971332,250.646739 C514.932546,250.840353 514.738617,250.995245 514.350759,251.150136 C511.946037,251.963315 509.96796,253.318614 508.455312,255.216033 C506.903879,257.113451 505.934233,259.320652 505.58516,261.837636 Z M531.067454,289.640625 C531.261383,289.447011 531.455312,289.330842 531.688027,289.330842 C531.765599,289.330842 531.920742,289.369565 532.114671,289.447011 C532.3086,289.524457 532.50253,289.718071 532.618887,290.027853 C532.657673,290.105299 532.657673,290.221467 532.657673,290.298913 C532.657673,290.53125 532.580101,290.724864 532.386172,290.957201 C529.205734,294.171196 525.365936,295.952446 520.866779,296.339674 C520.440135,296.339674 520.168634,296.184783 520.052277,295.913723 C519.974705,295.758832 519.974705,295.60394 519.974705,295.449049 C519.974705,295.294158 520.013491,295.100543 520.129848,294.868207 C520.246206,294.63587 520.478921,294.480978 520.866779,294.442255 C524.86172,294.09375 528.236088,292.506114 531.067454,289.640625 Z M533.278246,287.51087 C533.588533,287.51087 533.821248,287.588315 533.976391,287.781929 C534.092749,287.975543 534.17032,288.20788 534.17032,288.47894 C534.17032,288.711277 534.092749,288.904891 533.976391,289.098505 C533.821248,289.29212 533.588533,289.408288 533.278246,289.408288 C532.96796,289.408288 532.735245,289.29212 532.618887,289.098505 C532.463744,288.904891 532.386172,288.711277 532.386172,288.47894 C532.386172,288.20788 532.463744,287.975543 532.618887,287.781929 C532.735245,287.588315 532.96796,287.51087 533.278246,287.51087 Z M173.909176,233.286251 C173.750269,232.757165 173.778178,232.213963 173.764509,231.673019 C173.706984,229.372031 173.418219,227.083465 173.447835,224.774572 C173.458087,223.978402 173.271842,223.098097 172.384473,222.729374 C171.535266,222.377027 170.903627,222.92644 170.303315,223.416566 C169.596496,223.994212 168.877147,224.554354 168.00003,224.845154 C166.178019,225.449339 164.315001,225.866622 162.381928,225.866622 C161.144281,225.866622 159.950492,225.714164 158.828467,225.085697 C156.366276,223.706234 154.700894,221.757593 153.962748,219.011089 C153.570325,217.552009 153.432492,216.092363 153.42224,214.594321 C153.39661,210.800938 157.607909,208.991769 159.986945,209.442931 C162.101707,209.84384 164.295069,210.157789 166.29421,211.124487 C167.375228,211.647362 168.056417,211.197892 168.188554,210.027353 C168.218741,209.759139 168.203362,209.485844 168.203932,209.214808 C168.208489,207.679499 168.238105,206.142495 168.081477,204.994541 C167.83429,202.005233 167.990918,199.382954 167.670258,196.774226 C167.4749,195.18245 167.136584,194.724511 165.504236,194.607627 C164.640789,194.54608 163.775633,194.503166 162.915602,194.411691 C161.875592,194.301017 160.843557,194.08814 159.801839,194.024898 C155.962462,193.792257 152.586133,195.221976 149.303781,196.972986 C144.139615,199.727395 141.34936,204.128353 140.405606,209.744457 C139.765425,213.551958 140.067859,217.404066 140.094628,221.239234 C140.104879,222.714125 140.503567,224.098671 141.226334,225.381013 C142.070417,226.87849 142.8621,228.415494 143.833762,229.828837 C145.969029,232.935595 148.821936,235.275545 152.430645,236.424627 C157.027532,237.88879 161.808386,238.201612 166.61658,237.891049 C169.027512,237.735203 171.258463,237.030508 173.139137,235.425745 C173.827161,234.837935 174.178578,234.184059 173.909178,233.28625 L173.909176,233.286251 Z M203.098663,194.208648 C201.24306,192.913465 199.309552,191.683099 197.046924,191.309988 C194.321384,190.860224 191.546164,190.969565 188.805382,191.200646 C185.580234,191.472307 182.557187,192.5443 179.654948,193.955023 C178.559764,194.487637 177.472483,195.038852 176.356976,195.524685 C175.163564,196.0449 175.078319,196.198766 175.007189,197.541855 C174.932106,198.961596 175.470102,200.307502 175.46107,201.697372 C175.434538,205.715932 176.017131,209.700676 176.050437,213.71529 C176.062857,215.202101 176.199473,216.690038 176.485688,218.151487 C177.084089,221.20176 177.750232,224.23907 178.328309,227.292724 C178.880982,230.21393 179.190907,233.177971 179.840679,236.083395 C180.008344,236.831872 180.166976,237.587678 180.583033,238.245977 C180.906507,238.758302 181.351356,239.081252 181.915883,238.606127 C182.243874,238.330521 182.53517,238.34292 182.908324,238.415062 C187.077363,239.217647 191.362695,239.077308 195.526087,239.961616 C196.41522,240.150427 196.983134,239.629084 197.080233,238.696868 C197.176203,237.774233 196.927811,236.901196 196.554658,236.072686 C196.014969,234.875008 195.633348,233.623224 195.31439,232.35904 C194.983577,231.046949 194.639215,229.743313 194.187593,228.467293 C193.223944,225.745042 192.466348,222.967557 191.886014,220.137094 C191.587943,218.68241 191.163419,217.253651 190.807202,215.810802 C190.115654,213.011337 189.400962,210.214689 189.129989,207.3335 C189.025551,206.220929 189.105714,206.14766 190.226866,206.323506 C193.037086,206.763124 195.806096,207.40226 198.543492,208.171029 C199.502624,208.440435 200.382724,208.834401 201.087819,209.621768 C201.740413,210.349956 202.563495,210.218071 203.133104,209.403086 C203.309238,209.151151 203.397304,208.837218 203.520936,208.549212 C204.150949,207.078182 204.146998,205.479213 204.464827,203.945622 C204.757253,202.534336 204.557974,201.068379 205,199.680764 C205,198.418271 205,197.155779 205,195.893286 C204.499264,195.181443 203.790217,194.691663 203.09867,194.208648 L203.098663,194.208648 Z" id="Combined-Shape" fill="#FFFFFF" fill-rule="nonzero"></path>
    </g>
</svg>