<svg xmlns="http://www.w3.org/2000/svg" viewBox="0 0 410 139"><title>Creative Branding</title><path fill="#FFF" d="M152.635161,63 C154.949433,63 157.028355,63.5820661 158.950378,64.7073938 C160.872401,65.871526 162.519849,67.4625066 163.892722,69.4415312 C165.265595,71.4593603 166.363894,73.6324069 167.109168,75.9606712 C167.854442,78.3277399 168.285917,80.5783954 168.403592,82.7902465 C168.403592,83.1394861 168.442817,83.5275302 168.442817,83.8767698 C168.442817,86.3990561 168.011342,88.9601468 167.148393,91.560042 C166.285444,94.1599371 164.951796,96.6046146 163.108223,98.8552701 C161.26465,101.105926 158.989603,102.890928 156.322306,104.210278 C153.34121,105.646041 150.281664,106.499738 147.104442,106.69376 C149.928639,111.505506 153.458885,115.424751 157.655955,118.451494 C161.853025,121.517042 166.638469,123.651285 172.012287,124.893026 C174.24811,125.397483 176.640832,125.669114 179.268904,125.746723 C179.935728,125.785527 180.563327,125.785527 181.190926,125.785527 C183.073724,125.785527 184.799622,125.669114 186.407845,125.436287 C186.839319,125.358679 187.310019,125.319874 187.702268,125.319874 C188.800567,125.319874 189.898866,125.591505 190.997164,126.173571 C192.134688,126.716833 192.919187,127.764552 193.389887,129.355532 C193.507561,129.821185 193.586011,130.286838 193.586011,130.791295 C193.586011,131.256948 193.507561,131.877819 193.311437,132.653907 C193.115312,133.39119 192.644612,134.167278 191.977788,134.904562 C191.310964,135.641846 190.448015,136.146303 189.428166,136.340325 C186.52552,136.805978 183.622873,137 180.720227,137 C177.189981,137 172.953686,136.534347 168.011342,135.564237 C163.068998,134.594127 157.852079,132.265863 152.399811,128.579444 C145.339319,123.690089 139.847826,117.520189 135.925331,110.030939 C135.807656,111.078658 135.689981,112.24279 135.611531,113.484531 C135.454631,115.15312 134.905482,116.433665 133.964083,117.326167 C133.022684,118.257472 131.924386,118.800734 130.669187,118.955952 C130.433837,118.994756 130.159263,118.994756 129.923913,118.994756 C128.904064,118.994756 127.884216,118.723125 126.864367,118.141059 C125.805293,117.558993 124.981569,116.511274 124.393195,114.997902 C122.745747,110.457787 121.608223,105.801259 120.980624,101.028317 C120.3138,96.2941793 120,91.5212375 120,86.6706869 C120,81.8589407 120.117675,77.0471945 120.353025,72.2742528 C120.431474,70.6832722 120.980624,69.3639224 122.039698,68.3162035 C123.032579,67.333967 124.266786,66.7951011 125.742319,66.667632 L126.040643,66.6476141 L126.197543,66.6476141 C127.138941,66.6476141 128.08034,66.8804405 128.904064,67.3848977 C129.767013,67.889355 130.473062,68.5878343 130.982987,69.4803356 C131.441919,70.2137389 131.710217,71.0100052 131.759288,71.8408464 L131.767486,72.1190351 L131.767486,72.2742528 L131.728261,72.4294704 C131.532136,76.6591505 131.414461,80.8888306 131.375236,85.0409019 C131.728261,84.2260094 132.159735,83.4111169 132.59121,82.5962244 C134.552457,78.5217619 136.905955,74.6413214 139.612476,70.9937074 C140.632325,69.6355532 141.769849,68.3550079 142.985822,67.1520713 C144.201796,65.9879392 145.574669,65.0178291 147.065217,64.2805454 C148.395597,63.604702 149.890776,63.1897104 151.550754,63.0355707 L152.007561,63 L152.635161,63 Z M166.206994,125.785527 C165.971645,125.785527 165.77552,125.863136 165.61862,126.057158 C165.46172,126.25118 165.38327,126.445202 165.38327,126.716833 C165.38327,126.794442 165.38327,126.910855 165.422495,127.104877 C165.46172,127.298899 165.657845,127.492921 166.050095,127.648138 C170.953214,129.277923 175.974008,130.092816 181.112476,130.092816 C181.700851,130.092816 182.289225,130.092816 182.877599,130.054012 C183.269849,130.015207 183.544423,129.85999 183.662098,129.549554 C183.740548,129.394337 183.779773,129.239119 183.779773,129.083901 C183.779773,128.928684 183.740548,128.773466 183.622873,128.54064 C183.505198,128.307813 183.269849,128.1914 182.877599,128.1914 C182.367675,128.1914 181.818526,128.230205 181.308601,128.230205 C176.248582,128.230205 171.345463,127.415312 166.520794,125.824331 C166.403119,125.785527 166.285444,125.785527 166.206994,125.785527 Z M186.68242,128.036182 C186.36862,128.036182 186.13327,128.113791 186.015595,128.307813 C185.858696,128.501835 185.780246,128.734662 185.780246,129.006293 C185.780246,129.239119 185.858696,129.433141 186.015595,129.627163 C186.13327,129.821185 186.36862,129.937598 186.68242,129.937598 C186.996219,129.937598 187.231569,129.821185 187.388469,129.627163 C187.506144,129.433141 187.584594,129.239119 187.584594,129.006293 C187.584594,128.734662 187.506144,128.501835 187.388469,128.307813 C187.231569,128.113791 186.996219,128.036182 186.68242,128.036182 Z M99.4135703,64 C102.088853,64 104.531502,64.6270411 106.819063,65.9203135 C109.106624,67.1743958 110.96769,68.9771391 112.441034,71.3677335 C113.914378,73.7583279 114.767367,76.4232528 114.961228,79.4016982 C114.961228,79.7544089 115,80.0679295 115,80.4206401 C115,82.7328543 114.573506,85.0058785 113.720517,87.2789027 C112.9063,89.5519268 111.66559,91.7073808 110.075929,93.7844546 C108.486268,95.8615284 106.663974,97.7034618 104.609047,99.3102547 C105.966074,101.152188 106.857835,103.229262 107.28433,105.502286 C107.400646,106.246897 107.478191,107.030699 107.478191,107.77531 C107.478191,109.303723 107.206785,110.832136 106.702746,112.399739 C105.88853,114.711953 104.725363,116.671457 103.213247,118.31744 C101.662359,119.963423 99.8788368,121.256695 97.8239095,122.197257 C95.7689822,123.137818 93.5201939,123.725669 91.1550889,123.92162 C90.5735057,123.96081 89.9919225,124 89.4103393,124 C87.8594507,124 86.1922456,123.80405 84.3699515,123.372959 C82.5476575,122.941868 80.6865913,122.275637 78.7479806,121.295885 C76.7705977,120.355323 74.9095315,119.297191 73.1647819,118.082299 C72.273021,117.416068 71.5751212,116.632266 71.0710824,115.730895 C70.644588,114.907903 70.3731826,113.653821 70.2956381,112.007838 C69.365105,100.603527 68.4345719,89.2384063 67.5040388,77.8732854 C67.4006462,76.4885696 67.2972536,75.1212715 67.182373,73.7481675 L67,71.6812541 L67,71.4069236 C67,70.4271718 67.2714055,69.5649902 67.7754443,68.7811888 C68.279483,67.9581973 68.9773829,67.3311561 69.8691438,66.8216852 C70.6618201,66.3688221 71.4851313,66.101749 72.3390774,66.0204659 L72.6607431,65.9986937 L72.9321486,65.9986937 C73.901454,65.9986937 74.7932149,66.2338341 75.5686591,66.743305 C76.3441034,67.252776 76.9644588,67.9581973 77.4684976,68.8595689 C77.8756058,69.6482691 78.1342892,70.4669742 78.270522,71.3156842 L78.3214863,71.6812541 L78.9418417,79.4408883 L78.9418417,79.7544089 C79.2907916,79.0881777 79.6009693,78.4219464 79.9499192,77.7557152 C81.19063,75.2867407 82.7027464,73.0529066 84.5250404,71.0542129 C86.3473344,69.0555193 88.4022617,67.4487263 90.7673667,66.2338341 C93.0936995,65.0189419 95.6526656,64.2743305 98.4830372,64.0391901 C98.7932149,64.0391901 99.1033926,64 99.4135703,64 Z M228.16093,66 C229.684651,66 231.364651,66.3512786 233.20093,67.0148048 C234.99814,67.717362 236.756279,69.0053836 238.436279,70.8398385 C240.116279,72.6742934 241.444651,74.781965 242.421395,77.1628533 C243.827907,80.5975774 244.648372,84.0713324 244.882791,87.5450875 C244.96093,88.5598923 245,89.5746972 245,90.589502 C245,93.0484522 244.765581,95.7806191 244.257674,98.7469717 C243.749767,101.713324 242.929302,104.874832 241.796279,108.270525 C240.663256,111.666218 239.530233,114.671602 238.475349,117.247645 C237.420465,119.862719 236.834419,121.189771 236.795349,121.228802 C236.092093,122.516824 235.076279,123.336474 233.708837,123.726783 C233.122791,123.921938 232.536744,124 231.950698,124 C231.208372,124 230.466047,123.843876 229.723721,123.570659 C228.903256,123.219381 228.2,122.711978 227.574884,121.97039 C226.949767,121.228802 226.52,120.448183 226.285581,119.550471 C226.168372,119.160162 226.129302,118.769852 226.129302,118.379542 C226.129302,117.87214 226.207442,117.364738 226.402791,116.857335 C227.770233,113.695828 229.020465,110.53432 230.231628,107.294751 C231.403721,104.055182 232.341395,100.776581 233.005581,97.4199192 C233.435349,95.2732167 233.630698,93.0874832 233.630698,90.8627187 C233.630698,90.5114401 233.591628,89.5746972 233.552558,88.1305518 C233.513488,86.6864065 233.044651,84.6567968 232.185116,82.1197847 C231.989767,81.5733513 231.755349,80.9878869 231.48186,80.4024226 C231.169302,79.8169583 230.856744,79.2705249 230.505116,78.8411844 C229.606512,77.7873486 228.825116,77.2799462 228.2,77.2799462 C228.043721,77.2799462 227.770233,77.3580081 227.340465,77.5141319 C226.910698,77.7092867 226.324651,78.2557201 225.504186,79.153432 C224.683721,80.090175 224.136744,81.1440108 223.785116,82.2759085 C223.433488,83.4468371 223.08186,84.7348587 222.808372,86.179004 C222.534884,87.6231494 222.300465,89.0282638 222.105116,90.4333782 C221.675349,93.3216689 221.40186,96.2880215 221.323721,99.2934051 C221.284651,100.113055 221.284651,100.971736 221.284651,101.791386 C221.284651,103.539973 221.33466,105.28856 221.434679,107.037147 L221.51907,108.348587 L221.51907,108.777927 C221.51907,109.909825 221.245581,110.846568 220.659535,111.666218 C220.073488,112.485868 219.253023,113.071332 218.237209,113.422611 C217.494884,113.695828 216.713488,113.851952 215.893023,113.851952 C215.619535,113.851952 215.150698,113.812921 214.486512,113.734859 C213.822326,113.656797 213.04093,113.305518 212.181395,112.641992 C211.282791,111.978466 210.696744,111.041723 210.345116,109.831763 C207.102326,97.3028264 204.68,84.5787349 203.03907,71.7375505 C203,71.5814266 203,71.4253028 203,71.269179 C203,70.410498 203.273488,69.5908479 203.820465,68.8102288 C204.328372,68.0296097 205.070698,67.4051144 205.969302,66.897712 C206.768062,66.4466876 207.597692,66.1806989 208.430751,66.0997458 L208.743256,66.0780619 L208.899535,66.0780619 C209.954419,66.0780619 210.853023,66.3512786 211.634419,66.858681 C212.415814,67.3660834 213.04093,68.0686406 213.548837,68.9273217 C213.95907,69.7128197 214.249651,70.5282007 214.394408,71.3734648 L214.447442,71.7375505 L214.83814,74.7039031 C215.932093,72.6352624 217.338605,70.8788694 219.018605,69.3566622 C220.698605,67.8734859 222.730233,66.858681 225.113488,66.3122476 C226.168372,66.1170929 227.184186,66 228.16093,66 Z M189.192817,75.4950184 C189.624291,75.4950184 190.016541,75.5338228 190.448015,75.5726272 C194.213611,75.9606712 197.077032,77.7456738 199.077505,80.8888306 C200.764178,83.605139 201.823251,86.9423178 202.215501,90.8227583 C202.725425,95.7897221 203,101.416361 203,107.741479 C203,109.642895 202.960775,111.505506 202.92155,113.406922 C202.882325,114.997902 202.333176,116.317252 201.274102,117.364971 C200.28122,118.347208 199.012538,118.886074 197.532697,119.013543 L197.233932,119.033561 L197.077032,119.033561 C196.096408,119.033561 195.194234,118.800734 194.331285,118.296277 C193.507561,117.79182 192.801512,117.09334 192.291588,116.200839 C191.832656,115.432512 191.564357,114.601321 191.515287,113.707268 L191.507089,113.406922 L191.546314,108.556371 L191.546314,106.150498 C189.388941,106.228107 187.231569,106.305716 185.113422,106.305716 C184.145873,106.305716 183.195757,106.288469 182.239831,106.265474 L180.798677,106.228107 L180.955577,108.168327 C180.955577,109.060829 180.720227,109.914525 180.171078,110.690614 C179.661153,111.466702 178.915879,112.087572 178.013705,112.592029 C176.993856,113.135291 176.013233,113.406922 175.032609,113.406922 C174.01276,113.406922 173.071361,113.174095 172.286862,112.669638 C171.502363,112.165181 170.874764,111.466702 170.404064,110.5742 C169.89414,109.681699 169.619565,108.750393 169.50189,107.780283 C169.40775,106.848977 169.363819,105.917672 169.350011,104.986366 L169.344991,104.287887 L169.344991,103.123755 C168.795841,102.231253 168.521267,101.222339 168.521267,100.097011 C168.521267,98.661248 169.109641,97.3418983 170.325614,96.1389617 C171.070888,93.2286314 172.129962,90.4735186 173.502836,87.7960147 C175.346408,84.2648138 177.621456,81.3544835 180.288752,79.103828 C183.112949,76.6979549 186.094045,75.4950184 189.192817,75.4950184 Z M277.211997,61.1166439 C278.27691,61.1944065 279.736237,61.622101 281.511093,62.3997271 C285.770748,64.26603 288.965489,67.3376535 291.174199,71.6145975 C293.73788,76.7080491 295,82.2680764 295,88.2946794 C295,94.5156889 293.580115,99.9979536 290.740345,104.702592 C289.00493,107.540928 286.875103,110.029332 284.311422,112.128922 C281.74774,114.267394 278.829088,115.861528 275.594906,116.911323 C273.267872,117.611187 270.980279,118 268.653246,118 C267.667214,118 266.129006,117.844475 264.03862,117.572306 C261.908792,117.300136 259.423993,116.289222 256.584224,114.578445 C253.744454,112.906548 251.377979,110.651432 249.52424,107.890859 C249.062777,107.156003 248.792999,106.389652 248.743658,105.563463 L248.735415,105.285812 L248.735415,104.469304 C248.735415,104.009798 248.930991,103.389625 249.322144,102.637997 L249.445357,102.408595 L247,68.9317872 C247,67.9597544 247.276089,67.1043656 247.788825,66.2878581 C248.301561,65.4713506 249.011504,64.8492497 249.918652,64.3437926 C250.904684,63.7994543 251.890715,63.5272851 252.916187,63.5272851 C253.94166,63.5272851 254.848809,63.7994543 255.677075,64.3049113 C256.505341,64.8103683 257.136401,65.5102319 257.649137,66.3656207 C258.104903,67.1605275 258.373688,67.9861553 258.483192,68.8698118 L258.516845,69.2039563 L258.714051,72.3533424 C261.908792,67.1432469 265.734593,63.6439291 270.230896,61.8942701 C271.887428,61.3110505 273.504519,61 275.200493,61 C275.437141,61 276.107642,61.0388813 277.211997,61.1166439 Z M96.5056543,113.693011 C96.3505654,113.693011 96.1954766,113.732201 96.0016155,113.849771 C94.1405493,115.025474 92.1631664,115.613325 90.0694669,115.613325 C89.2940226,115.613325 88.5185784,115.534944 87.7043619,115.378184 C87.6268174,115.378184 87.549273,115.338994 87.4329564,115.338994 C87.2003231,115.338994 86.9676898,115.456564 86.812601,115.652515 C86.6510501,115.848465 86.5702746,116.044415 86.547837,116.263045 L86.5411955,116.397126 L86.5411955,116.553886 C86.5799677,116.867407 86.812601,117.063357 87.2003231,117.180927 C88.1696284,117.376878 89.1389338,117.494448 90.1082391,117.494448 C92.5121163,117.494448 94.7996769,116.828217 96.9709208,115.495754 C97.2084006,115.290007 97.3568255,115.084259 97.3902211,114.826002 L97.3974152,114.711953 L97.3974152,114.633573 C97.358643,114.280862 97.2423263,114.045722 97.0484653,113.888961 C96.8546042,113.771391 96.6607431,113.693011 96.5056543,113.693011 Z M98.9095315,111.224037 C98.4830372,111.263227 98.2116317,111.419987 98.095315,111.655127 C98.0177706,111.929458 97.9789984,112.125408 97.9789984,112.282169 C97.9789984,112.478119 98.0177706,112.634879 98.095315,112.83083 C98.2504039,113.14435 98.5218094,113.30111 98.9095315,113.3403 C99.3747981,113.30111 99.6462036,113.14435 99.723748,112.90921 C99.8012924,112.634879 99.8400646,112.438929 99.8400646,112.282169 C99.8400646,112.086218 99.8012924,111.929458 99.723748,111.733508 C99.5686591,111.419987 99.2972536,111.263227 98.9095315,111.224037 Z M93.0936995,104.640105 C91.1163166,105.071195 89.0613893,105.267146 87.006462,105.267146 C86.5121163,105.267146 85.9959612,105.245101 85.4743538,105.217546 L84.9515347,105.188766 L82.7027464,105.737427 C82.5476575,106.482038 82.3925687,107.265839 82.276252,108.049641 C82.1987076,108.480732 82.082391,108.794252 81.9660743,109.029393 C81.8497577,109.303723 81.733441,109.499673 81.6171244,109.656434 C81.5589661,109.744611 81.5226171,109.810745 81.5080775,109.871367 L81.5008078,109.930764 L83.2843296,110.910516 L83.4006462,110.949706 C83.4781906,110.988896 83.5945073,111.067276 83.7108239,111.106466 C83.8271405,111.145656 83.904685,111.224037 84.0210016,111.263227 C84.098546,111.289353 84.1588584,111.31548 84.2134267,111.341607 L84.2924071,111.380797 L84.3699515,111.419987 C85.1453958,111.772698 85.9596123,112.047028 86.812601,112.242978 C87.6655897,112.438929 88.5185784,112.556499 89.4103393,112.595689 C90.1470113,112.595689 90.8449111,112.517309 91.5815832,112.399739 C92.3182553,112.282169 93.0936995,111.929458 93.907916,111.419987 C94.7221325,110.910516 95.2649435,110.361855 95.5363489,109.774004 C95.8077544,109.186153 95.9628433,108.637492 96.0403877,108.128021 C96.0403877,108.010451 96.0791599,107.932071 96.0791599,107.8145 C96.0791599,107.344219 95.9240711,106.756368 95.6526656,106.090137 C95.5363489,105.894187 95.3037157,105.698236 95.0323102,105.502286 C94.7221325,105.306336 94.0630048,105.032005 93.0936995,104.640105 Z M280.091208,104.236016 C279.85456,104.236016 279.657354,104.35266 279.460148,104.547067 C276.541495,107.774216 272.991783,109.368349 268.732128,109.368349 C268.006409,109.368349 267.305933,109.318581 266.590311,109.219045 L266.050123,109.135061 L265.852917,109.135061 C265.576828,109.135061 265.30074,109.251705 265.142975,109.446112 C264.945768,109.6794 264.866886,109.912688 264.866886,110.184857 C264.866886,110.57367 265.064092,110.845839 265.537387,110.962483 C266.602301,111.156889 267.627773,111.234652 268.653246,111.234652 C273.504519,111.234652 277.527527,109.446112 280.840592,105.907913 C280.966804,105.721282 281.042531,105.534652 281.067773,105.348022 L281.077239,105.208049 L281.037798,104.93588 C280.840592,104.469304 280.525062,104.236016 280.091208,104.236016 Z M275.752671,72.3533424 L275.239934,72.3533424 C274.963846,72.3533424 274.490551,72.431105 273.820049,72.6255116 C273.465078,72.8004775 273.110107,72.9973141 272.771775,73.2160215 L272.439606,73.4420191 L271.808546,74.0252387 C270.546426,75.2305593 269.323747,76.824693 268.179951,78.8076398 C265.695152,83.2012278 263.841413,88.4502046 262.658176,94.5934516 C262.108816,97.1568408 261.695487,100.089007 261.355034,103.389951 L261.277732,104.158254 L262.303205,104.896999 C263.525883,105.635744 264.590797,106.102319 265.458505,106.296726 C266.286771,106.491132 267.115037,106.568895 267.943303,106.607776 C268.337716,106.646658 268.732128,106.646658 269.126541,106.646658 C269.481512,106.646658 269.954807,106.607776 270.546426,106.568895 C271.098603,106.530014 272.045193,106.257844 273.346754,105.713506 C276.38373,104.35266 278.789647,102.214188 280.564503,99.3369714 C282.576007,96.148704 283.562038,92.4549795 283.562038,88.2557981 C283.562038,85.1841746 283.00986,82.0736698 281.866064,78.8465211 C281.235004,77.2523874 280.564503,75.9693042 279.815119,74.9583902 C279.460148,74.5306958 278.986853,74.0641201 278.355793,73.4809004 C277.685292,72.8976808 276.817584,72.547749 275.752671,72.3533424 Z M282.812654,101.825375 C282.536565,101.825375 282.299918,101.903138 282.142153,102.097544 C281.984388,102.291951 281.905505,102.525239 281.905505,102.758527 C281.905505,102.991814 281.984388,103.225102 282.142153,103.419509 C282.299918,103.613915 282.536565,103.730559 282.812654,103.730559 C283.128184,103.730559 283.364832,103.613915 283.522597,103.419509 C283.680362,103.225102 283.759244,102.991814 283.759244,102.758527 C283.759244,102.136426 283.443714,101.825375 282.812654,101.825375 Z M157.420605,91.8316728 L157.342155,91.8316728 C157.028355,91.8316728 156.793006,91.9868904 156.557656,92.2973256 C155.498582,94.1211327 154.008034,95.4792868 152.125236,96.3717881 C150.791588,96.9926586 149.37949,97.3030939 147.928166,97.3030939 C147.426087,97.3030939 146.949112,97.278259 146.457074,97.2087216 L146.084594,97.1478762 L145.888469,97.1478762 C145.574669,97.1478762 145.339319,97.2254851 145.143195,97.4583115 C144.986295,97.6523335 144.907845,97.8851599 144.907845,98.1567908 C144.907845,98.2343996 144.907845,98.3508128 144.94707,98.5448348 C144.986295,98.7388568 145.18242,98.8552701 145.535444,98.9716833 C146.319943,99.0880965 147.104442,99.1657053 147.849716,99.1657053 C149.575614,99.1657053 151.419187,98.7388568 153.34121,97.8851599 C155.263233,97.031463 156.910681,95.4792868 158.244329,93.2674358 C158.322779,93.1122181 158.362004,92.9570005 158.362004,92.8017829 C158.362004,92.6077609 158.283554,92.4137389 158.126654,92.2197168 C157.969754,92.0256948 157.734405,91.8704772 157.420605,91.8316728 Z M152.439036,74.2532774 L152.360586,74.2532774 C152.321361,74.2532774 152.164461,74.3308862 151.929112,74.4472994 C151.693762,74.5637126 151.379962,74.7965391 151.026938,75.1069743 C150.320888,75.7666492 149.732514,76.4263241 149.22259,77.085999 C148.712665,77.7456738 148.163516,78.4829575 147.614367,79.29785 C146.633743,80.8112218 145.653119,82.4022024 144.71172,83.993183 C142.946597,87.058731 141.495274,90.0078658 140.35775,92.8793917 C140.318526,92.9570005 140.279301,93.0346093 140.279301,93.1122181 C140.240076,93.2286314 140.240076,93.3062402 140.200851,93.383849 C140.98535,93.771893 141.612949,94.3151547 142.083648,95.013634 C143.299622,95.3240692 144.201796,95.4792868 144.79017,95.4792868 C145.378544,95.4792868 146.084594,95.4404824 146.908318,95.3628736 C147.732042,95.2852648 148.594991,95.0912428 149.418715,94.819612 C150.242439,94.5479811 151.223062,94.0823283 152.282136,93.3450446 C153.34121,92.6077609 154.243384,91.754064 155.067108,90.706345 C155.851607,89.6586261 156.361531,88.4556896 156.636106,87.0199266 C156.910681,85.622968 157.028355,84.5752491 157.028355,83.8767698 C157.028355,83.2170949 156.98913,82.5962244 156.910681,82.0529628 C156.793006,81.5097011 156.714556,81.0440482 156.636106,80.6948086 C156.557656,80.345569 156.400756,79.8411117 156.165406,79.103828 C155.890832,78.3665443 155.498582,77.6292606 154.988658,76.8143681 C154.478733,75.9994756 154.008034,75.4174095 153.57656,75.0293655 C153.145085,74.6413214 152.831285,74.408495 152.674386,74.3308862 C152.556711,74.2920818 152.478261,74.2532774 152.439036,74.2532774 Z M188.879017,87.1751442 C188.643667,87.1751442 188.290643,87.2915574 187.780718,87.5243838 C187.270794,87.7572103 186.44707,88.7273204 185.231096,90.4735186 C183.934494,92.3425974 183.127719,93.7963254 182.744684,94.8020129 L182.681474,94.9748296 L185.074197,95.013634 C187.074669,95.013634 189.075142,94.9748296 191.075614,94.8584164 C191.036389,91.2496067 190.761815,88.9989512 190.212665,88.1064499 C189.820416,87.4855794 189.388941,87.1751442 188.879017,87.1751442 Z M99.2972536,75.4043109 C99.0646204,75.4043109 98.7156704,75.443501 98.2116317,75.4826911 C97.7075929,75.5610712 97.2810985,75.6786414 96.8933764,75.7962116 C96.4668821,75.9529719 96.0791599,76.1489223 95.6526656,76.3840627 C95.2261712,76.6192031 94.8772213,76.8151535 94.644588,76.9719138 C94.3731826,77.1286741 94.1405493,77.3246244 93.9466882,77.5205748 C93.7472883,77.7221237 93.4909169,77.9812581 93.1775741,78.3226573 L93.0161551,78.5003266 L92.7059774,78.8138472 C92.628433,78.9314174 92.5508885,79.0097975 92.4345719,79.1273677 C92.3473344,79.2155454 92.2819063,79.3037231 92.2219305,79.3753674 L92.1631664,79.4408883 L92.085622,79.5584585 C91.4652666,80.38145 90.8836834,81.2828217 90.3408724,82.2625735 C89.7980614,83.2815153 89.3327948,84.2612671 88.9063005,85.1626388 C88.4022617,86.2599608 87.8594507,87.5924233 87.3166397,89.1600261 C86.8416801,90.5316786 86.4260905,91.7833116 86.0438964,92.9149249 L85.8820679,93.3925539 L86.3861066,93.3925539 C88.2471729,93.3925539 89.914378,93.2749837 91.5040388,93.0006532 C93.0549273,92.7263227 93.9466882,92.5303723 94.1793215,92.4128021 C94.3654281,92.3187459 94.6011632,92.1996081 94.8865267,92.0553886 L95.1098546,91.9425212 L95.2649435,91.8641411 C97.552504,90.6492489 99.6849758,88.7289353 101.739903,86.0248204 C102.20517,85.3193991 102.55412,84.731548 102.786753,84.2612671 C102.980614,83.7909863 103.252019,82.7720444 103.523425,81.2436316 C103.600969,80.7341607 103.678514,80.2638798 103.678514,79.793599 C103.678514,78.9314174 103.44588,78.1084259 102.941842,77.3638145 C102.476575,76.6192031 101.85622,76.0705421 101.042003,75.7570216 C100.46042,75.5218811 99.8788368,75.4043109 99.2972536,75.4043109 Z M159.381853,88.6109072 C158.950378,88.6497116 158.636578,88.882538 158.518904,89.2317777 C158.440454,89.3869953 158.440454,89.5810173 158.440454,89.7362349 C158.440454,89.8914525 158.479679,90.124279 158.597353,90.3571054 C158.715028,90.6287362 158.950378,90.7451494 159.381853,90.7451494 C159.813327,90.706345 160.127127,90.512323 160.244802,90.1630834 C160.323251,90.0078658 160.323251,89.8526481 160.323251,89.6974305 C160.323251,89.5034085 160.284026,89.3093865 160.166352,89.0377556 C160.048677,88.7661248 159.774102,88.6497116 159.381853,88.6109072 Z M123.020321,73.8652334 C122.863422,73.8652334 122.667297,73.9428422 122.431947,74.020451 C122.196597,74.1368642 122.039698,74.3696906 122.000473,74.7577347 C121.725898,77.085999 121.608223,79.4530676 121.608223,81.7813319 C121.608223,84.1095962 121.725898,86.4766649 122.000473,88.8049292 C122.039698,89.2317777 122.235822,89.5034085 122.549622,89.6198217 C122.706522,89.6974305 122.902647,89.6974305 123.059546,89.6974305 C123.216446,89.6974305 123.334121,89.6974305 123.491021,89.6198217 C123.731274,89.5179601 123.8514,89.3269697 123.877678,89.0468504 L123.88327,88.9213424 L123.88327,88.8049292 C123.569471,86.3990561 123.451796,84.0319874 123.451796,81.6261143 C123.451796,79.6637201 123.538251,77.7013259 123.735862,75.7389318 L123.844045,74.7577347 L123.844045,74.6801259 C123.844045,74.3308862 123.726371,74.0980598 123.451796,73.9816466 C123.294896,73.9040378 123.177221,73.8652334 123.020321,73.8652334 Z M208.899535,87.076716 L208.821395,87.076716 C208.469767,87.076716 208.235349,87.1547779 208.07907,87.3499327 C207.922791,87.5450875 207.844651,87.7402423 207.844651,87.935397 C207.844651,88.1305518 207.883721,88.2866756 207.96186,88.4818304 C208.00093,88.5989233 208.07907,88.7160162 208.11814,88.833109 C208.157209,88.833109 208.157209,88.833109 208.157209,88.87214 C208.293953,89.1112046 208.490523,89.26062 208.746919,89.2942384 L208.860465,89.3014805 L209.173023,89.3014805 C209.368372,89.3014805 209.524651,89.1843876 209.68093,88.9892328 C209.837209,88.7940781 209.915349,88.6379542 209.915349,88.4427995 C209.915349,88.2476447 209.876279,88.0915209 209.79814,87.8963661 C209.75907,87.8573351 209.72,87.7792732 209.68093,87.7402423 C209.64186,87.6621803 209.64186,87.5841184 209.602791,87.5450875 C209.407442,87.2328398 209.173023,87.076716 208.899535,87.076716 Z M185.074197,77.7068694 C184.917297,77.7068694 184.760397,77.7456738 184.603497,77.8232826 C181.112476,79.7635029 178.523629,82.5186156 176.758507,86.0886209 C176.680057,86.2826429 176.640832,86.4378605 176.640832,86.5930781 C176.640832,86.7482958 176.680057,86.9035134 176.797732,87.058731 C177.033081,87.3691662 177.307656,87.5243838 177.660681,87.5243838 C177.935255,87.5243838 178.170605,87.3691662 178.36673,87.058731 C179.974953,83.7603566 182.367675,81.2380703 185.544896,79.4530676 C185.858696,79.2590456 186.015595,79.0262192 186.015595,78.7545884 C186.015595,78.3665443 185.897921,78.0949135 185.701796,77.9396959 C185.466446,77.7844782 185.270321,77.7068694 185.074197,77.7068694 Z M205.969302,72.0888291 C205.813023,72.0888291 205.695814,72.12786 205.539535,72.2059219 C205.226977,72.3620458 205.070698,72.6352624 205.070698,73.025572 C205.226977,76.6944818 205.695814,80.3243607 206.43814,83.9152086 C206.555349,84.3055182 206.672558,84.5006729 206.867907,84.5397039 C207.063256,84.5787349 207.180465,84.5787349 207.258605,84.5787349 C207.532093,84.5787349 207.766512,84.5006729 207.96186,84.3445491 C208.166977,84.2079408 208.252442,83.9816832 208.270603,83.7180718 L208.274419,83.602961 L208.274419,83.4078062 C207.532093,80.0121131 207.102326,76.538358 206.985116,73.025572 C206.946047,72.6352624 206.789767,72.4010767 206.555349,72.2839838 C206.32093,72.166891 206.125581,72.0888291 205.969302,72.0888291 Z M188.212193,76.5815417 C187.584594,76.6591505 187.270794,77.0083901 187.270794,77.668065 C187.270794,78.3665443 187.584594,78.715784 188.212193,78.715784 C188.839792,78.6381751 189.153592,78.2889355 189.153592,77.5904562 C189.153592,76.9307813 188.839792,76.5815417 188.212193,76.5815417 Z M97.1260097,66.1162639 L97.0484653,66.1162639 C94.644588,66.3122142 92.4733441,67.0568256 90.5347334,68.2717178 C88.5573506,69.5258001 86.9676898,71.2109732 85.7657512,73.3272371 C85.6882068,73.5231875 85.6494346,73.6799477 85.6494346,73.836708 C85.6494346,73.9934683 85.6882068,74.1502286 85.7657512,74.2677988 C85.9319178,74.5029393 86.0980845,74.6517016 86.2642511,74.7140858 L86.3473344,74.7380797 L86.6962843,74.7380797 C86.9676898,74.7380797 87.2003231,74.5813194 87.3941842,74.2677988 C88.4410339,72.5042456 89.7980614,71.0542129 91.4652666,69.9568909 C93.1324717,68.8595689 94.993538,68.1933377 97.0484653,67.9973873 C97.4361874,67.9581973 97.6688207,67.801437 97.7851373,67.5662965 C97.901454,67.3311561 97.9402262,67.1352057 97.9402262,66.9784455 C97.9402262,66.8216852 97.901454,66.704115 97.8239095,66.5473547 C97.7075929,66.2730242 97.4749596,66.1162639 97.1260097,66.1162639 Z M228.082791,68.615074 C227.106047,68.615074 226.168372,68.7321669 225.191628,69.0053836 C222.808372,69.6298789 220.776744,70.9179004 219.174884,72.8304172 C219.018605,73.064603 218.940465,73.2597577 218.940465,73.4549125 C218.940465,73.5720054 218.979535,73.6890983 219.018605,73.8061911 C219.135814,74.1184388 219.292093,74.3135935 219.487442,74.3916555 C219.682791,74.4697174 219.83907,74.5087483 219.87814,74.5087483 C220.112558,74.5087483 220.307907,74.3916555 220.503256,74.1574697 C221.948837,72.4791386 223.355349,71.4253028 224.76186,71.0740242 C226.168372,70.7227456 227.262326,70.5275908 228.043721,70.5275908 C229.293953,70.5275908 230.505116,70.7617766 231.755349,71.269179 C231.911628,71.30821 232.028837,71.3472409 232.146047,71.3472409 C232.341395,71.3472409 232.536744,71.269179 232.653953,71.1130552 C232.778977,70.9569314 232.853991,70.7758277 232.878995,70.5697443 L232.888372,70.410498 L232.888372,70.2153432 C232.849302,69.8640646 232.614884,69.6298789 232.263256,69.4347241 C230.856744,68.8882907 229.489302,68.615074 228.082791,68.615074 Z M271.769104,64.3437926 L271.453574,64.3826739 C267.391126,65.7435198 264.117502,68.1930423 261.711586,71.7312415 C261.593262,71.925648 261.553821,72.0811733 261.553821,72.2366985 C261.553821,72.3922237 261.593262,72.5088677 261.672145,72.6255116 C261.869351,72.9365621 262.184881,73.0920873 262.579293,73.0920873 C262.894823,73.0920873 263.131471,72.9754434 263.368118,72.6643929 C265.497946,69.5927694 268.377157,67.4154161 271.966311,66.2100955 C272.400164,66.0156889 272.597371,65.7435198 272.597371,65.3158254 C272.597371,65.0436562 272.518488,64.8103683 272.360723,64.6159618 C272.202958,64.4215553 272.005752,64.3437926 271.769104,64.3437926 Z M235.154419,70.5666218 C234.724651,70.6056528 234.451163,70.7617766 234.333953,71.0349933 C234.255814,71.30821 234.216744,71.5423957 234.216744,71.6985195 C234.216744,71.8936743 234.255814,72.0888291 234.333953,72.2839838 C234.451163,72.6352624 234.724651,72.8304172 235.154419,72.8304172 C235.584186,72.7913863 235.857674,72.6352624 235.974884,72.3620458 C236.053023,72.0888291 236.092093,71.8936743 236.092093,71.6985195 C236.092093,71.5033647 236.053023,71.30821 235.974884,71.1130552 C235.818605,70.7617766 235.545116,70.6056528 235.154419,70.5666218 Z M123.844045,68.8982695 C123.726371,68.8982695 123.647921,68.9370739 123.569471,68.9370739 C123.137996,69.0534872 122.902647,69.325118 122.784972,69.6743576 C122.745747,69.7907708 122.745747,69.9071841 122.745747,69.9847929 C122.745747,70.2176193 122.824197,70.4504457 122.941871,70.6832722 C123.113481,70.9209491 123.345153,71.0397876 123.663166,71.0657835 L123.80482,71.0713162 L123.922495,71.0713162 C124.43242,70.9937074 124.746219,70.7996854 124.863894,70.4892501 C124.903119,70.3340325 124.942344,70.1788149 124.942344,70.0235973 C124.942344,69.8683797 124.903119,69.7519664 124.863894,69.5967488 C124.746219,69.325118 124.550095,69.131096 124.314745,69.0146827 C124.157845,68.9370739 124.000945,68.8982695 123.844045,68.8982695 Z M99.8788368,65.4108426 C99.5686591,65.4108426 99.3360258,65.4892227 99.180937,65.6851731 C99.0258481,65.8811234 98.9483037,66.1162639 98.9483037,66.3514043 C98.9483037,66.5865447 99.0258481,66.7824951 99.180937,66.9784455 C99.3360258,67.1743958 99.5686591,67.291966 99.8788368,67.291966 C100.150242,67.291966 100.382876,67.1743958 100.537964,66.9784455 C100.693053,66.7824951 100.770598,66.5865447 100.770598,66.3514043 C100.770598,66.1162639 100.693053,65.8811234 100.537964,65.6851731 C100.382876,65.4892227 100.150242,65.4108426 99.8788368,65.4108426 Z M201.191634,20.499393 C204.186772,20.8862001 207.215544,20.728654 210.214161,21.0465695 C211.227231,21.1538592 212.250739,21.2306555 213.216257,21.575676 C214.198014,21.926907 214.64511,22.4944128 214.476361,23.4199252 C213.888931,26.6380448 214.225847,29.8222825 214.843431,32.9788514 C215.178971,34.6930121 215.45229,36.4168608 215.710451,38.1425954 L216.220509,41.5942676 C216.479377,43.3190493 216.754463,45.0405157 217.092829,46.750865 C217.983542,51.253634 218.187663,55.8015779 218.58025,60.3416159 C218.650417,61.1536282 218.777413,61.9498298 218.931664,62.7505478 C219.252928,64.42031 218.410925,65.0967985 217.045862,64.9889437 C216.354632,64.9341698 215.655284,64.9793435 214.959414,64.9793435 C212.58555,65.0465917 210.257695,64.5976929 207.910059,64.3763643 L207.205108,64.3175366 L205.541981,64.193306 C204.193154,64.0984397 203.501923,63.4885834 203.401022,62.1858628 C203.237493,60.0700021 203.151669,57.9484948 202.98408,55.8326341 C202.604831,51.0571234 201.790663,46.3335645 201.120888,41.5936299 C200.336295,36.0405527 199.707694,30.4801359 199.866003,24.8609917 C199.891518,23.9642784 199.874121,23.0952329 199.364977,22.2476458 C198.854093,21.3961063 199.35106,20.6366098 200.358911,20.5016512 C200.63204,20.4649473 200.918506,20.4638182 201.191634,20.499393 Z M274.214462,62.9440655 C273.622843,62.9440655 273.307313,63.255116 273.307313,63.9160982 C273.307313,64.5381992 273.622843,64.8492497 274.214462,64.8492497 C274.806081,64.8492497 275.121611,64.5381992 275.121611,63.9160982 C275.121611,63.255116 274.806081,62.9440655 274.214462,62.9440655 Z M172.63712,5.3781279 C174.030195,5.57140607 174.520298,6.27553148 174.286889,7.65470702 C174.03417,9.1467711 173.955798,10.6445364 173.997824,12.151424 C174.022244,13.0322947 174.050072,13.0653618 174.95134,13.0043569 C175.947448,12.9365097 176.938445,12.8008164 177.934554,12.7323985 C178.521769,12.692489 179.113528,12.7204255 179.703583,12.7272679 C181.184683,12.7449421 183.021862,14.5665482 182.918502,16.2096998 C182.777661,18.4429494 183.101369,20.6642249 183.507422,22.8689661 C183.832832,24.6329874 183.394976,25.1261605 181.590736,25.36448 C179.739359,25.6090712 177.88117,25.6672255 176.018435,25.6900314 C175.61011,25.6945914 175.200651,25.7048538 174.795165,25.7476151 C174.297111,25.8006388 173.96886,25.9882145 173.98249,26.6056798 C174.081874,31.0710378 173.75476,35.5438077 174.178986,40.0017539 C174.369803,42.0103665 175.042205,43.9089422 175.750384,45.7881321 C176.05535,46.5960249 176.599405,47.1821324 177.350745,47.5772405 C178.15774,48.0014263 178.714289,47.8446365 179.183948,47.0572684 C179.442914,46.6233896 179.576373,46.1387695 179.686546,45.6473057 C180.386776,42.5314761 180.967176,39.3991123 181.075646,36.19434 C181.116536,34.9833567 181.447058,34.6253075 182.643637,34.3294032 C183.354656,34.1537992 184.076465,34.0802507 184.803954,34.0762601 C187.075014,34.0631472 189.346072,34.0449024 191.617131,34.0631472 C193.160133,34.0756908 193.657619,34.5312343 193.797892,36.0654879 C193.977351,38.0227886 194.544122,39.9105314 194.770716,41.859279 C195.051832,44.2779927 195.021208,46.7024185 194.955366,49.1241384 L194.909289,50.7381249 C194.87493,51.9409227 194.390757,53.0356635 193.869421,54.103101 L193.583851,54.6831173 L193.442952,54.9720047 C193.027244,55.8329199 192.622326,56.6949764 192.242964,57.5724259 C191.777848,58.6482853 191.148608,59.385479 189.848101,59.7190129 C188.428335,60.0833339 187.096594,60.8929361 185.808013,61.6489452 C184.225826,62.5771371 182.560155,63.0235595 180.746261,62.999043 C180.493381,62.9956221 180.240465,62.9943887 179.98753,62.994284 L178.469799,62.9987286 C177.457978,62.9994265 176.446315,62.9843 175.435766,62.8855838 C173.190831,62.6666479 171.248589,61.8456433 169.606772,60.2395507 C168.115449,58.7805549 166.508841,57.4544031 165.136778,55.8557234 C164.020274,54.5546575 163.049154,53.2142515 162.533494,51.5785118 C161.575436,48.5385093 160.831478,45.4357926 159.820604,42.4083337 C159.328797,40.9367956 159.283365,39.3597807 159.279957,37.8055718 C159.273142,34.7501764 159.283932,31.6953516 159.280524,28.6399562 C159.279956,28.2362951 159.375364,27.8235116 159.147066,27.2733242 C158.087352,27.3998951 157.056034,27.5230461 156.024715,27.6456264 C155.754392,27.6781241 155.484067,27.7191748 155.212608,27.7385596 C152.908043,27.9044706 152.339001,27.4808554 152.164085,25.1694961 C151.863664,21.2047241 151.990307,17.2405216 152.425323,13.2888626 C152.54572,12.1930478 152.984143,11.8121914 154.147784,11.7717113 C155.736218,11.7164076 157.32579,11.7454842 158.913089,11.8771869 C159.866604,11.9564365 159.904085,11.9336305 159.981888,10.9683785 C160.080704,9.73687042 160.255619,8.52474712 160.589549,7.33428856 C160.83091,6.47394267 161.326124,6.03094145 162.238749,5.75955366 C165.686511,4.73500734 169.153581,4.89407719 172.63712,5.3781279 Z M234.002526,8.02280231 C235.627507,8.03812952 235.960967,8.40313584 236.310789,10.0436813 C236.568077,11.249397 236.679795,12.4624923 236.76048,13.6858053 C236.922412,16.1449203 237.61698,18.504695 238.134379,20.8951229 C238.968309,24.750121 239.662312,28.6380424 240.790206,32.4249203 C240.901924,32.8012818 240.943677,33.2043221 241.270366,33.5744379 C241.474617,33.0686497 241.387162,32.6230353 241.387725,32.1927469 C241.395061,27.9256258 241.371363,23.6585059 241.399011,19.391953 C241.415373,16.8919658 241.311555,14.4016294 241.069501,11.9146994 C241.030005,11.5093878 241.008,11.098968 241.020977,10.6925214 C241.046368,9.87735815 241.449228,9.3420518 242.234071,9.08263036 C242.801121,8.8953024 243.378892,8.82945465 243.966819,8.83002156 C247.756747,8.83285975 251.546676,8.82491208 255.336041,8.85443025 C256.860028,8.86635114 257.222828,9.41755038 256.882033,10.9150451 C256.566441,12.3046837 256.409334,13.7177854 256.275799,15.1329893 L256.145126,16.548103 L256.076313,17.254702 C255.478229,23.1243334 255.148154,29.0126995 254.866604,34.907309 C254.609315,40.3001047 254.133106,45.6826826 253.709934,51.0663956 C253.559849,52.971472 253.587497,54.8759802 253.539537,56.7810566 C253.494399,58.5708973 253.145705,58.925119 251.374024,58.9438525 C248.712554,58.9722356 246.05052,58.9807502 243.388484,58.9994837 C240.814469,59.0176491 238.264717,58.5498949 235.686752,58.6299361 C234.701043,58.6605905 234.186466,58.0480824 233.737339,57.219862 C231.953246,53.9296884 230.733383,50.4169922 229.7725,46.826525 C228.331459,41.4405408 227.069277,36.0063048 225.686351,30.6038583 C224.730547,26.8709085 223.47965,23.2185667 222.638948,19.4532606 C222.431311,18.5239967 222.247936,17.5924614 222.130013,16.6444652 C221.981056,15.4529417 221.273512,14.4674796 220.837927,13.3804059 C220.753857,13.1709381 220.639318,12.9733912 220.534935,12.7724379 C219.511423,10.8009457 219.923874,9.64631984 222.056097,8.78063361 C223.272011,8.28676632 224.565789,8.02564172 225.881572,8.01428774 C228.58818,7.99101286 231.295918,7.99782549 234.002526,8.02280231 Z M128.034357,9.05389003 C130.545414,9.30446644 133.066621,9.46272503 135.544407,9.9822269 C137.151528,10.3193874 138.672372,10.9134306 139.997542,11.8939465 C142.188866,13.515526 144.239215,15.3079781 145.90047,17.512706 C146.448582,18.2403524 146.927899,19.0293523 147.530711,19.7053924 C149.005316,21.3590815 149.53482,23.3378896 149.693276,25.4973188 C150.025409,30.0294815 150.077288,34.5702461 149.899659,39.102984 C149.720339,43.6787263 149.726542,48.2647897 149.301923,52.8313575 C149.215646,53.7545345 148.854184,54.3153205 148.01115,54.7207147 C146.748572,55.3279471 145.390696,55.4030624 144.067217,55.5894184 C140.404109,56.1060534 136.798518,56.9587011 133.143304,57.4856571 C129.753124,57.9741947 126.323471,58.2780966 122.907916,57.6301527 C121.07749,57.2832451 119.375633,56.5458515 117.762873,55.6077675 C116.967771,55.1450331 116.314773,54.5091306 115.839404,53.7109561 C114.19281,50.9460162 112.874406,48.0549272 112.536065,44.7842459 C112.450915,43.9585492 112.424412,43.1397314 112.516328,42.3157538 C112.79264,39.8466877 113.42985,37.4584719 114.114991,35.0840167 C115.104639,31.6539303 119.928259,27.6338141 124.453575,27.6412682 C127.710111,27.647002 130.942398,27.7628287 134.088973,28.7318771 C134.209648,28.7691478 134.351188,28.7364643 134.658515,28.7364643 L134.638892,28.3443283 L134.602905,27.5605099 C134.528794,25.9944362 134.415924,24.4415736 133.797436,22.9709138 C133.297881,21.7822211 132.401469,21.0211083 131.122927,20.8460151 L130.893339,20.8212318 L130.623795,20.799442 C127.053731,20.5213421 126.313327,20.8126299 123.875578,23.4886941 C123.385548,24.0271188 122.92202,24.5896252 122.451726,25.1458239 C121.285576,26.5260015 120.809643,26.587355 119.174327,25.9875767 C117.2283,25.2742659 115.258589,24.6406564 113.353164,23.8011979 C113.127152,23.7017702 112.888097,23.6318612 112.645225,23.5682171 L112.157127,23.4423923 C111.818433,23.3512454 111.484243,23.2422793 111.179276,23.053193 L111,22.9296285 L111,21.8286974 C111.440972,21.5437159 111.444355,21.0574714 111.514279,20.6159529 C111.630442,19.881425 111.861642,19.1916231 112.227051,18.5522811 C114.810851,14.0333062 118.501591,10.9323523 123.487614,9.50974413 C124.972932,9.08600084 126.482499,8.89907096 128.034357,9.05389003 Z M273.553724,12.6741481 C277.365743,12.0046756 281.128124,11.671917 284.957832,12.4509906 C288.303691,13.1311976 291.423032,14.3402025 294.295884,16.1491895 C295.928873,17.1768438 297.036932,18.6773658 297.652584,20.4761838 C298.90728,24.1427449 299.477286,27.9296414 299.445904,31.7995862 C299.432781,33.4611197 299.023677,33.7503764 297.34276,33.9526305 C295.573403,34.165619 293.792063,34.1334157 292.02556,34.3497943 C291.215342,34.4492263 290.374883,34.4961183 289.568659,34.4006405 C286.874399,34.0808757 284.194401,34.1836977 281.514405,34.5074169 C279.998954,34.690463 278.479192,34.7133126 276.958839,34.7135639 L275.438426,34.7113787 L275.438426,34.7113787 L274.678329,34.7141919 C273.512071,34.7237955 273.497806,34.7311398 273.497806,35.923761 L273.497806,35.923761 L273.495306,36.5031846 C273.491067,37.5634756 273.5158,38.6120363 274.016459,39.6355178 C275.487975,42.6433407 278.579928,44.4060013 281.910953,44.0828475 C282.802194,43.9964092 283.324842,43.512807 283.676888,42.7857092 C283.994128,42.1303612 284.166442,41.4264261 284.228634,40.6998938 C284.252027,40.4298455 284.251458,40.1569714 284.291968,39.8897478 C284.637737,37.6039374 284.7587,37.4790823 287.074098,37.1547977 C288.835467,36.9079121 290.596836,36.6638512 292.36277,36.4548169 C293.405783,36.3316568 294.455072,36.3107546 295.496944,36.5243074 C295.960579,36.6195428 296.429057,36.6334248 296.898333,36.6335239 L297.602341,36.6317818 L297.602341,36.6317818 L297.953846,36.6389947 C299.154909,36.683062 299.525213,36.9734483 299.715215,38.1022295 C300.465527,42.5614245 299.768284,46.7822066 297.205256,50.5453751 C295.425628,53.1594242 292.952749,54.9972233 289.790045,55.7706475 C287.735399,56.2734581 285.705858,55.8407022 283.68716,55.5079436 C283.190188,55.4254608 282.708622,55.3350681 282.206516,55.3644455 C279.989256,55.4938203 277.843318,55.1232092 275.744168,54.4446973 C272.398309,53.3633722 269.188245,51.9622834 266.068335,50.3578097 C264.972829,49.7945493 263.961197,49.0990882 263.004341,48.3239689 C261.47862,47.0878458 260.4299,45.5528625 259.833648,43.6822948 C258.866521,40.6473537 258.094531,35.9988995 258.039185,32.2701936 C257.616387,25.7861996 260.650142,20.6151622 265.438989,16.2892976 C267.713305,14.23512 270.497147,13.2108558 273.553724,12.6741481 Z M94.9578315,12.4509906 C98.3036911,13.1311976 101.423032,14.3402025 104.295884,16.1491895 C105.928873,17.1768438 107.036932,18.6773658 107.652584,20.4761838 C108.90728,24.1427449 109.477286,27.9296414 109.445904,31.7995862 C109.432781,33.4611197 109.023677,33.7503764 107.34276,33.9526305 C105.573403,34.165619 103.792063,34.1334157 102.02556,34.3497943 C101.215342,34.4492263 100.374883,34.4961183 99.5686593,34.4006405 C96.8743989,34.0808757 94.1944012,34.1836977 91.5144046,34.5074169 C89.9989541,34.690463 88.4791924,34.7133126 86.9588388,34.7135639 L85.4384257,34.7113787 L84.6783295,34.7141919 C83.5606648,34.7233953 83.5009944,34.7305239 83.4979623,35.7807708 L83.4978057,35.923761 L83.4953062,36.5031846 C83.4910666,37.5634756 83.5158,38.6120363 84.0164588,39.6355178 C85.487975,42.6433407 88.579928,44.4060013 91.9109528,44.0828475 C92.8021936,43.9964092 93.3248416,43.512807 93.6768877,42.7857092 C93.9941284,42.1303612 94.1664422,41.4264261 94.2286343,40.6998938 C94.2520274,40.4298455 94.2514576,40.1569714 94.2919685,39.8897478 C94.6377368,37.6039374 94.7586996,37.4790823 97.0740982,37.1547977 C98.8354672,36.9079121 100.596836,36.6638512 102.36277,36.4548169 C103.405783,36.3316568 104.455072,36.3107546 105.496944,36.5243074 C105.960579,36.6195428 106.429057,36.6334248 106.898333,36.6335239 L107.602341,36.6317818 L107.953846,36.6389947 C109.154909,36.683062 109.525213,36.9734483 109.715215,38.1022295 C110.465527,42.5614245 109.768284,46.7822066 107.205256,50.5453751 C105.425628,53.1594242 102.952749,54.9972233 99.7900446,55.7706475 C97.735399,56.2734581 95.7058585,55.8407022 93.6871603,55.5079436 C93.1901884,55.4254608 92.7086224,55.3350681 92.206516,55.3644455 C89.9892558,55.4938203 87.8433183,55.1232092 85.7441682,54.4446973 C82.3983086,53.3633722 79.1882455,51.9622834 76.0683346,50.3578097 C74.9728287,49.7945493 73.9611973,49.0990882 73.0043406,48.3239689 C71.4786195,47.0878458 70.4298998,45.5528625 69.8336475,43.6822948 C68.8665206,40.6473537 68.0945308,35.9988995 68.039185,32.2701936 C67.6163873,25.7861996 70.6501419,20.6151622 75.4389889,16.2892976 C77.7133055,14.23512 80.4971471,13.2108558 83.5537237,12.6741481 C87.3657434,12.0046756 91.1281242,11.671917 94.9578315,12.4509906 Z M128.939419,37.7738377 C126.887379,37.8225772 125.3327,39.0037847 124.697746,40.9762852 C124.387037,41.9413189 124.257903,42.93445 124.279331,43.9522378 C124.309782,45.3863148 124.932894,46.3857535 126.269342,46.9138561 C127.065571,47.228079 127.847704,47.5795751 128.633219,47.920749 C128.972687,48.0681139 129.323998,48.1162795 129.688843,48.0996508 C130.774355,48.0503387 131.82434,47.8226986 132.870379,47.523384 C133.424695,47.3651204 133.557777,47.0635115 133.535785,46.535409 C133.503079,45.7125791 133.527327,44.8874537 133.527327,44.0634761 C133.525635,42.5003845 133.377328,40.9516273 133.137105,39.4114707 C132.944815,38.1786581 132.726022,37.9361097 131.504045,37.8231498 C130.654808,37.744595 129.793731,37.7537683 128.939419,37.7738377 Z M86.2382873,21.1275788 C84.4523844,21.3230516 81.6046388,24.6692836 82.214014,27.5076199 C84.4512435,26.7760025 86.7734884,26.6873049 89.0968754,26.6500177 C90.3709716,26.6296797 91.6456389,26.6760063 92.8609668,26.2003138 C92.5751076,22.7173626 89.9070932,20.7258953 86.2382873,21.1275788 Z M282.860967,26.2003138 C282.575108,22.7173626 279.907093,20.7258953 276.238287,21.1275788 C274.452384,21.3230516 271.604639,24.6692836 272.214014,27.5076199 C274.451244,26.7760025 276.773488,26.6873049 279.096875,26.6500177 C280.370972,26.6296797 281.645639,26.6760063 282.860967,26.2003138 Z M211.440633,2.42789788 C212.620132,2.48944744 213.289327,3.32461113 213.375151,4.69735115 C213.535201,7.26552207 213.645381,9.83708142 213.763099,12.4075105 C213.792093,13.0388252 213.774117,13.6718329 213.767738,14.3042755 C213.750341,16.0779403 213.412265,16.4015023 211.535736,16.4088431 C209.54149,16.4161839 207.547245,16.4105373 205.552999,16.4105373 C203.51236,16.4105373 201.471142,16.4218317 199.431085,16.406585 C197.883355,16.3958558 197.349856,15.9723448 197.021637,14.5245015 C196.80186,13.5549431 196.624992,12.5763509 196.401154,11.6079229 C196.239364,10.9071538 196.034663,10.2284072 195.697746,9.56773054 C195.109157,8.41465134 195.067985,7.12887166 195.027972,5.86229106 C195.007675,5.2304124 194.984479,4.59684074 195.014053,3.96609115 C195.075522,2.65828912 195.661213,2.07949016 196.998442,2.03713846 C198.110675,2.00212754 199.224646,2.02753832 200.337457,2.02697439 C202.238921,2.02640925 204.143284,2.08796002 206.041267,2.00946953 C207.865604,1.93380233 209.636592,2.33359676 211.440633,2.42789788 Z M312,85.4624 C312,84.4824 311.722772,83.5416 311.207921,82.64 C310.693069,81.7384 309.980198,81.0328 309.108911,80.5232 C308.277228,80.0136 307.326733,79.7784 306.376238,79.7784 L306.217822,79.7784 C304.594059,79.896 303.247525,80.4448 302.178218,81.464 C301.108911,82.5224 300.514851,83.8552 300.435644,85.4624 L300.118812,108.316 C300.118812,109.296 300.39604,110.2368 300.910891,111.1384 C301.425743,112.04 302.138614,112.7456 302.970297,113.2552 C303.841584,113.7648 304.752475,114 305.742574,114 L305.90099,114 C307.524752,113.8824 308.871287,113.3336 309.940594,112.2752 C311.009901,111.256 311.60396,109.9232 311.643564,108.316 L311.80198,96.9088 C311.841584,93.1064 311.920792,89.2648 312,85.4624 Z M300.673267,73.7024 C301.188119,74.604 301.861386,75.2312 302.693069,75.6624 C303.524752,76.0936 304.118812,76.3288 304.475248,76.4464 C304.831683,76.564 305.267327,76.6424 305.742574,76.6424 L306.019802,76.6424 C308.237624,76.6032 309.940594,75.6232 311.128713,73.7808 C311.643564,72.8792 311.920792,71.8992 311.920792,70.8408 C311.881188,69.7824 311.60396,68.7632 311.089109,67.8616 C310.732673,67.1952 310.257426,66.6464 309.70297,66.2544 C309.148515,65.8624 308.673267,65.588 308.237624,65.392 C307.80198,65.2352 307.405941,65.1176 307.009901,65.0784 C306.613861,65.0392 306.29703,65 306.019802,65 L305.623762,65 C305.227723,65.0392 304.633663,65.1176 303.881188,65.3136 C303.089109,65.5096 302.336634,65.9408 301.623762,66.6464 C300.712871,67.5872 300.237624,68.4496 300.158416,69.2728 C300.039604,70.096 300,70.6056 300,70.8408 C300,71.9776 300.237624,72.9576 300.673267,73.7024 Z M304,67.9008 C303.960396,67.8616 303.920792,67.8224 303.881188,67.7832 L303.80198,67.7048 C303.60396,67.4696 303.485149,67.2736 303.485149,67.0384 C303.485149,66.96 303.524752,66.8032 303.60396,66.6072 C303.683168,66.4112 303.881188,66.2544 304.19802,66.1368 C304.316832,66.0976 304.39604,66.0584 304.514851,66.0584 C304.712871,66.0584 304.950495,66.176 305.148515,66.372 L305.346535,66.568 C305.544554,66.764 305.623762,66.9992 305.623762,67.1952 C305.623762,67.2736 305.584158,67.4304 305.544554,67.6264 C305.465347,67.8224 305.267327,68.0184 304.950495,68.136 C304.871287,68.1752 304.752475,68.2144 304.673267,68.2144 C304.435644,68.2144 304.237624,68.0968 304,67.9008 Z M306.059406,73.1928 C306.455446,73.2712 306.693069,73.4672 306.732673,73.7808 L306.732673,73.9768 C306.732673,74.212 306.653465,74.4472 306.49505,74.6824 C306.29703,74.9176 306.019802,75.0352 305.663366,75.0352 L305.544554,75.0352 C304.079208,74.7216 303.049505,73.9768 302.376238,72.8008 C301.980198,72.1344 301.782178,71.4288 301.782178,70.684 C301.782178,70.096 301.90099,69.508 302.138614,68.92 C302.29703,68.5672 302.574257,68.3712 302.930693,68.332 L303.128713,68.332 C303.405941,68.332 303.60396,68.4104 303.80198,68.5672 C303.960396,68.6848 304.039604,68.8808 304.039604,69.0768 C304.039604,69.1944 304,69.312 303.960396,69.4296 C303.80198,69.8608 303.722772,70.2528 303.722772,70.6448 C303.722772,71.076 303.881188,71.5464 304.158416,72.0952 C304.475248,72.644 305.108911,72.9968 306.059406,73.1928 Z M302.415842,85.8936 C302.49505,85.4624 302.693069,85.188 303.009901,85.0704 C303.168317,84.992 303.326733,84.9528 303.485149,84.9528 C303.643564,84.9528 303.762376,84.992 303.920792,85.0704 C304.19802,85.188 304.316832,85.4232 304.316832,85.776 L304.316832,85.8936 C303.960396,88.716 303.762376,91.5776 303.762376,94.4 C303.762376,96.36 303.881188,98.3592 304.039604,100.3192 L304.039604,100.4368 C304.039604,100.7896 303.920792,101.0248 303.643564,101.1424 C303.485149,101.2208 303.326733,101.2208 303.168317,101.2208 C303.009901,101.2208 302.811881,101.1816 302.574257,101.1032 C302.336634,100.9856 302.178218,100.7504 302.138614,100.3192 C301.980198,98.3592 301.861386,96.36 301.861386,94.4 C301.861386,91.5776 302.059406,88.716 302.415842,85.8936 Z M302.534653,103.1808 C302.851485,103.1808 303.089109,103.2592 303.247525,103.4552 C303.405941,103.6512 303.485149,103.8864 303.485149,104.1216 C303.485149,104.3568 303.405941,104.592 303.247525,104.788 C303.089109,104.984 302.851485,105.1016 302.534653,105.1016 C302.257426,105.1016 302.019802,104.984 301.861386,104.788 C301.70297,104.592 301.623762,104.3568 301.623762,104.1216 C301.623762,103.8864 301.70297,103.6512 301.861386,103.4552 C302.019802,103.2592 302.257426,103.1808 302.534653,103.1808 Z M334.105116,90.4333782 C334.300465,89.0282638 334.534884,87.6231494 334.808372,86.179004 C335.08186,84.7348587 335.433488,83.4468371 335.785116,82.2759085 C336.136744,81.1440108 336.683721,80.090175 337.504186,79.153432 C338.324651,78.2557201 338.910698,77.7092867 339.340465,77.5141319 C339.770233,77.3580081 340.043721,77.2799462 340.2,77.2799462 C340.825116,77.2799462 341.606512,77.7873486 342.505116,78.8411844 C342.856744,79.2705249 343.169302,79.8169583 343.48186,80.4024226 C343.755349,80.9878869 343.989767,81.5733513 344.185116,82.1197847 C345.044651,84.6567968 345.513488,86.6864065 345.552558,88.1305518 C345.591628,89.5746972 345.630698,90.5114401 345.630698,90.8627187 C345.630698,93.0874832 345.435349,95.2732167 345.005581,97.4199192 C344.341395,100.776581 343.403721,104.055182 342.231628,107.294751 C341.020465,110.53432 339.770233,113.695828 338.402791,116.857335 C338.207442,117.364738 338.129302,117.87214 338.129302,118.379542 C338.129302,118.769852 338.168372,119.160162 338.285581,119.550471 C338.52,120.448183 338.949767,121.228802 339.574884,121.97039 C340.2,122.711978 340.903256,123.219381 341.723721,123.570659 C342.466047,123.843876 343.208372,124 343.950698,124 C344.536744,124 345.122791,123.921938 345.708837,123.726783 C347.076279,123.336474 348.092093,122.516824 348.795349,121.228802 C348.834419,121.189771 349.420465,119.862719 350.475349,117.247645 C351.530233,114.671602 352.663256,111.666218 353.796279,108.270525 C354.929302,104.874832 355.749767,101.713324 356.257674,98.7469717 C356.765581,95.7806191 357,93.0484522 357,90.589502 C357,89.5746972 356.96093,88.5598923 356.882791,87.5450875 C356.648372,84.0713324 355.827907,80.5975774 354.421395,77.1628533 C353.444651,74.781965 352.116279,72.6742934 350.436279,70.8398385 C348.756279,69.0053836 346.99814,67.717362 345.20093,67.0148048 C343.364651,66.3512786 341.684651,66 340.16093,66 C339.184186,66 338.168372,66.1170929 337.113488,66.3122476 C334.730233,66.858681 332.698605,67.8734859 331.018605,69.3566622 C329.338605,70.8788694 327.932093,72.6352624 326.83814,74.7039031 L326.447442,71.7375505 C326.330233,70.7617766 326.017674,69.8250336 325.548837,68.9273217 C325.04093,68.0686406 324.415814,67.3660834 323.634419,66.858681 C322.853023,66.3512786 321.954419,66.0780619 320.899535,66.0780619 L320.743256,66.0780619 C319.805581,66.1170929 318.867907,66.3903096 317.969302,66.897712 C317.070698,67.4051144 316.328372,68.0296097 315.820465,68.8102288 C315.273488,69.5908479 315,70.410498 315,71.269179 C315,71.4253028 315,71.5814266 315.03907,71.7375505 C316.68,84.5787349 319.102326,97.3028264 322.345116,109.831763 C322.696744,111.041723 323.282791,111.978466 324.181395,112.641992 C325.04093,113.305518 325.822326,113.656797 326.486512,113.734859 C327.150698,113.812921 327.619535,113.851952 327.893023,113.851952 C328.713488,113.851952 329.494884,113.695828 330.237209,113.422611 C331.253023,113.071332 332.073488,112.485868 332.659535,111.666218 C333.245581,110.846568 333.51907,109.909825 333.51907,108.777927 L333.51907,108.348587 C333.362791,106.162853 333.284651,103.97712 333.284651,101.791386 C333.284651,100.971736 333.284651,100.113055 333.323721,99.2934051 C333.40186,96.2880215 333.675349,93.3216689 334.105116,90.4333782 Z M320.274419,83.4078062 L320.274419,83.602961 C320.274419,83.9152086 320.196279,84.1884253 319.96186,84.3445491 C319.766512,84.5006729 319.532093,84.5787349 319.258605,84.5787349 C319.180465,84.5787349 319.063256,84.5787349 318.867907,84.5397039 C318.672558,84.5006729 318.555349,84.3055182 318.43814,83.9152086 C317.695814,80.3243607 317.226977,76.6944818 317.070698,73.025572 C317.070698,72.6352624 317.226977,72.3620458 317.539535,72.2059219 C317.695814,72.12786 317.813023,72.0888291 317.969302,72.0888291 C318.125581,72.0888291 318.32093,72.166891 318.555349,72.2839838 C318.789767,72.4010767 318.946047,72.6352624 318.985116,73.025572 C319.102326,76.538358 319.532093,80.0121131 320.274419,83.4078062 Z M321.602791,87.5450875 C321.64186,87.5841184 321.64186,87.6621803 321.68093,87.7402423 C321.72,87.7792732 321.75907,87.8573351 321.79814,87.8963661 C321.876279,88.0915209 321.915349,88.2476447 321.915349,88.4427995 C321.915349,88.6379542 321.837209,88.7940781 321.68093,88.9892328 C321.524651,89.1843876 321.368372,89.3014805 321.173023,89.3014805 C320.977674,89.3014805 320.899535,89.3014805 320.860465,89.3014805 C320.547907,89.3014805 320.313488,89.1453567 320.157209,88.87214 C320.157209,88.833109 320.157209,88.833109 320.11814,88.833109 C320.07907,88.7160162 320.00093,88.5989233 319.96186,88.4818304 C319.883721,88.2866756 319.844651,88.1305518 319.844651,87.935397 C319.844651,87.7402423 319.922791,87.5450875 320.07907,87.3499327 C320.235349,87.1547779 320.469767,87.076716 320.821395,87.076716 L320.899535,87.076716 C321.173023,87.076716 321.407442,87.2328398 321.602791,87.5450875 Z M344.263256,69.4347241 C344.614884,69.6298789 344.849302,69.8640646 344.888372,70.2153432 L344.888372,70.410498 C344.888372,70.6837147 344.810233,70.9179004 344.653953,71.1130552 C344.536744,71.269179 344.341395,71.3472409 344.146047,71.3472409 C344.028837,71.3472409 343.911628,71.30821 343.755349,71.269179 C342.505116,70.7617766 341.293953,70.5275908 340.043721,70.5275908 C339.262326,70.5275908 338.168372,70.7227456 336.76186,71.0740242 C335.355349,71.4253028 333.948837,72.4791386 332.503256,74.1574697 C332.307907,74.3916555 332.112558,74.5087483 331.87814,74.5087483 C331.83907,74.5087483 331.682791,74.4697174 331.487442,74.3916555 C331.292093,74.3135935 331.135814,74.1184388 331.018605,73.8061911 C330.979535,73.6890983 330.940465,73.5720054 330.940465,73.4549125 C330.940465,73.2597577 331.018605,73.064603 331.174884,72.8304172 C332.776744,70.9179004 334.808372,69.6298789 337.191628,69.0053836 C338.168372,68.7321669 339.106047,68.615074 340.082791,68.615074 C341.489302,68.615074 342.856744,68.8882907 344.263256,69.4347241 Z M347.154419,70.5666218 C347.545116,70.6056528 347.818605,70.7617766 347.974884,71.1130552 C348.053023,71.30821 348.092093,71.5033647 348.092093,71.6985195 C348.092093,71.8936743 348.053023,72.0888291 347.974884,72.3620458 C347.857674,72.6352624 347.584186,72.7913863 347.154419,72.8304172 C346.724651,72.8304172 346.451163,72.6352624 346.333953,72.2839838 C346.255814,72.0888291 346.216744,71.8936743 346.216744,71.6985195 C346.216744,71.5423957 346.255814,71.30821 346.333953,71.0349933 C346.451163,70.7617766 346.724651,70.6056528 347.154419,70.5666218 Z M391.399663,81.3478261 L388.956155,83.9809783 C387.908938,85.0652174 386.86172,85.9945652 385.892074,86.8077446 C384.883642,87.6209239 383.758853,88.2017663 382.517707,88.6277174 C381.27656,89.0149457 380.229342,89.2085598 379.41484,89.2085598 C379.065767,89.2085598 378.755481,89.2085598 378.445194,89.1311141 C377.397976,88.9375 376.505902,88.5115489 375.768971,87.8532609 C375.03204,87.1949728 374.411467,86.5366848 373.984823,85.8009511 C373.558179,85.1039402 373.325464,84.2907609 373.325464,83.3226902 C373.325464,82.3546196 373.519393,81.3865489 373.907251,80.3797554 C374.29511,79.4116848 374.876897,78.5210598 375.613828,77.7466033 C376.350759,77.0108696 377.010118,76.46875 377.630691,76.1589674 C378.212479,75.8491848 378.94941,75.6168478 379.763912,75.4232337 C380.578415,75.2683424 381.160202,75.1908967 381.509275,75.1908967 C382.013491,75.1908967 382.440135,75.2296196 382.827993,75.2683424 C383.564924,75.3845109 384.301855,75.578125 385.116358,75.8879076 C385.892074,76.236413 386.667791,76.6236413 387.443508,77.127038 C388.180438,77.6304348 388.72344,78.0563859 389.033727,78.4048913 C389.421585,78.8308424 389.848229,79.1793478 390.313659,79.4891304 C390.740304,79.8376359 391.360877,80.0699728 392.136594,80.263587 L391.399663,81.3478261 Z M402.337268,73.8743207 C401.988196,73.9130435 401.600337,73.9517663 401.212479,74.029212 L401.134907,73.9904891 C401.01855,73.9130435 399.699831,72.673913 397.256324,70.3118207 C394.77403,67.9497283 392.136594,66.3233696 389.305228,65.3940217 C386.473862,64.4646739 383.836425,64 381.470489,64 C380.306914,64 379.143339,64.0774457 377.940978,64.2710598 C375.613828,64.658288 373.480607,65.4714674 371.50253,66.671875 C369.524452,67.8722826 367.779089,69.4211957 366.344013,71.2411685 C364.870152,73.0611413 363.745363,75.0747283 362.969646,77.2819293 C362.310287,79.1019022 362,80.9605978 362,82.8580163 C362,83.2065217 362,83.59375 362.038786,83.9809783 C362.232715,86.265625 362.814503,88.4728261 363.784148,90.5638587 C364.753794,92.6548913 366.111298,94.4748641 367.817875,96.0237772 C369.795953,97.8050272 371.77403,99.0054348 373.790894,99.6637228 C375.768971,100.322011 377.669477,100.631793 379.453626,100.631793 C380.074199,100.631793 380.694772,100.593071 381.315346,100.515625 C383.758853,100.283288 386.124789,99.5862772 388.490725,98.3858696 C389.848229,97.6888587 391.166948,96.8756793 392.44688,95.9076087 C393.726813,94.939538 394.929174,93.9327446 396.053963,92.8097826 C395.860034,94.0101902 395.627319,95.2493207 395.278246,96.5658967 C394.929174,97.8824728 394.580101,99.0054348 394.231029,99.8960598 C393.959528,100.476902 393.571669,101.290082 392.989882,102.296875 C392.408094,103.303668 391.942664,104.078125 391.554806,104.620245 C391.244519,105.007473 390.817875,105.472147 390.274874,106.052989 C389.693086,106.633832 389.072513,107.175951 388.335582,107.718071 C387.598651,108.26019 386.939292,108.647418 386.279933,108.918478 C385.620573,109.189538 384.767285,109.460598 383.681282,109.692935 C383.526138,109.731658 383.177066,109.731658 382.711636,109.731658 L381.858347,109.731658 C380.888702,109.692935 379.841484,109.383152 378.639123,108.841033 C377.436762,108.337636 376.505902,107.756793 375.846543,107.137228 C375.187184,106.556386 374.450253,106.246603 373.713322,106.20788 C372.937605,106.20788 372.510961,106.20788 372.472175,106.20788 C371.037099,106.20788 369.718381,106.75 368.593592,107.795516 C367.546374,108.918478 367.003373,109.886549 367.003373,110.661005 C366.964587,111.474185 366.964587,111.900136 366.964587,111.938859 C366.964587,113.410326 367.507589,114.688179 368.593592,115.772418 C370.765599,117.824728 373.015177,119.180027 375.342327,119.915761 C377.669477,120.651495 379.841484,121 381.897133,121 C382.595278,121 383.293423,120.961277 383.991568,120.883832 C386.745363,120.612772 389.421585,119.877038 391.98145,118.599185 C394.50253,117.360054 396.752108,115.694973 398.6914,113.565217 C400.824621,111.203125 402.492411,108.686141 403.772344,105.975543 C405.013491,103.303668 405.944351,100.476902 406.564924,97.5339674 C407.146712,94.6297554 407.53457,91.6480978 407.728499,88.5889946 C407.922428,85.5298913 408,82.5095109 408,79.5278533 C408,78.5210598 407.728499,77.591712 407.224283,76.701087 C406.720067,75.8491848 406.021922,75.1521739 405.20742,74.6487772 C404.392917,74.1453804 403.462057,73.8743207 402.492411,73.8743207 L402.337268,73.8743207 Z M380.966273,67.9497283 C380.694772,67.9497283 380.462057,67.8335598 380.306914,67.6399457 C380.112985,67.4463315 380.035413,67.2527174 380.035413,66.9816576 C380.035413,66.7493207 380.112985,66.5169837 380.306914,66.3233696 C380.462057,66.1297554 380.733558,66.0523098 381.160202,66.0523098 C381.431703,66.0523098 381.664418,66.1297554 381.858347,66.3233696 C382.013491,66.5169837 382.091062,66.7493207 382.091062,66.9816576 L382.091062,67.0591033 C382.091062,67.2914402 382.013491,67.4850543 381.858347,67.6786685 C381.664418,67.8722826 381.392917,67.9497283 380.966273,67.9497283 Z M367.58516,79.8376359 C367.507589,80.2248641 367.313659,80.4572011 367.003373,80.4959239 L366.848229,80.4959239 C366.576728,80.4959239 366.344013,80.4184783 366.150084,80.2248641 C365.878583,80.03125 365.762226,79.7601902 365.762226,79.4116848 L365.762226,79.3342391 C366.18887,76.5074728 367.313659,74.029212 369.136594,71.8994565 C370.920742,69.7697011 373.17032,68.2595109 375.846543,67.330163 C375.962901,67.2914402 376.079258,67.2914402 376.195616,67.2914402 C376.389545,67.2914402 376.583474,67.3688859 376.738617,67.5237772 C376.932546,67.7561141 377.010118,68.0271739 377.010118,68.2982337 C377.010118,68.3369565 377.010118,68.453125 376.971332,68.6467391 C376.932546,68.8403533 376.738617,68.9952446 376.350759,69.1501359 C373.946037,69.9633152 371.96796,71.3186141 370.455312,73.2160326 C368.903879,75.1134511 367.934233,77.3206522 367.58516,79.8376359 Z M393.067454,107.640625 C393.261383,107.447011 393.455312,107.330842 393.688027,107.330842 C393.765599,107.330842 393.920742,107.369565 394.114671,107.447011 C394.3086,107.524457 394.50253,107.718071 394.618887,108.027853 C394.657673,108.105299 394.657673,108.221467 394.657673,108.298913 C394.657673,108.53125 394.580101,108.724864 394.386172,108.957201 C391.205734,112.171196 387.365936,113.952446 382.866779,114.339674 C382.440135,114.339674 382.168634,114.184783 382.052277,113.913723 C381.974705,113.758832 381.974705,113.60394 381.974705,113.449049 C381.974705,113.294158 382.013491,113.100543 382.129848,112.868207 C382.246206,112.63587 382.478921,112.480978 382.866779,112.442255 C386.86172,112.09375 390.236088,110.506114 393.067454,107.640625 Z M395.278246,105.51087 C395.588533,105.51087 395.821248,105.588315 395.976391,105.781929 C396.092749,105.975543 396.17032,106.20788 396.17032,106.47894 C396.17032,106.711277 396.092749,106.904891 395.976391,107.098505 C395.821248,107.29212 395.588533,107.408288 395.278246,107.408288 C394.96796,107.408288 394.735245,107.29212 394.618887,107.098505 C394.463744,106.904891 394.386172,106.711277 394.386172,106.47894 C394.386172,106.20788 394.463744,105.975543 394.618887,105.781929 C394.735245,105.588315 394.96796,105.51087 395.278246,105.51087 Z M35.9091756,51.2862514 C35.7502694,50.7571652 35.7781784,50.2139632 35.7645089,49.6730192 C35.7069845,47.3720306 35.4182187,45.083465 35.4478353,42.7745719 C35.4580871,41.9784021 35.271842,41.0980972 34.3844734,40.7293743 C33.5352657,40.3770266 32.9036275,40.9264401 32.3033146,41.4165657 C31.596496,41.9942121 30.8771466,42.5543544 30.0000299,42.8451538 C28.178019,43.4493391 26.3150009,43.8666224 24.3819277,43.8666224 C23.1442813,43.8666224 21.9504922,43.7141635 20.8284671,43.0856974 C18.3662762,41.7062335 16.7008938,39.7575927 15.9627485,37.0110891 C15.5703245,35.5520087 15.432492,34.0923632 15.4222402,32.594321 C15.39661,28.8009378 19.6079091,26.9917689 21.9869454,27.4429315 C24.1017073,27.8438396 26.2950685,28.1577895 28.2942104,29.1244874 C29.3752282,29.6473621 30.0564167,29.1978924 30.188554,28.0273533 C30.2187406,27.7591394 30.2033623,27.4858442 30.2039323,27.2148083 C30.2084888,25.6794985 30.2381054,24.1424946 30.0814769,22.9945409 C29.8342896,20.0052331 29.9909181,17.3829542 29.6702581,14.7742259 C29.4748999,13.1824502 29.1365839,12.724511 27.5042359,12.6076268 C26.6407887,12.5460796 25.7756326,12.5031657 24.9156019,12.4116913 C23.8755925,12.3010175 22.8435573,12.0881405 21.8018391,12.0248979 C17.9624616,11.7922575 14.5861332,13.2219758 11.3037812,14.9729858 C6.13961499,17.7273951 3.34935988,22.1283531 2.40560576,27.7444572 C1.7654245,31.5519575 2.06785855,35.404066 2.09462751,39.2392341 C2.10487933,40.7141246 2.50356741,42.0986709 3.22633443,43.3810129 C4.07041684,44.87849 4.86210013,46.4154939 5.83376204,47.8288371 C7.9690288,50.9355954 10.8219361,53.2755445 14.4306447,54.4246272 C19.0275323,55.8887901 23.8083863,56.2016122 28.6165805,55.8910494 C31.0275123,55.7352034 33.2584631,55.0305079 35.1391372,53.4257453 C35.8271611,52.8379351 36.1785778,52.1840592 35.909178,51.2862502 L35.9091756,51.2862514 Z M65.0986629,12.2086477 C63.2430596,10.913465 61.3095521,9.68309871 59.0469241,9.30998753 C56.3213838,8.86022417 53.5461645,8.96956473 50.8053816,9.20064576 C47.5802337,9.47230735 44.5571868,10.5442999 41.6549481,11.9550231 C40.5597637,12.4876374 39.4724831,13.0388515 38.356976,13.5246853 C37.1635636,14.0448996 37.0783195,14.1987656 37.0071891,15.5418545 C36.9321062,16.9615956 37.4701015,18.3075024 37.4610702,19.6973719 C37.4345375,23.7159321 38.0171305,27.7006757 38.050437,31.7152898 C38.062857,33.2021011 38.1994727,34.6900381 38.485688,36.1514866 C39.0840885,39.2017601 39.750232,42.2390696 40.3283087,45.2927239 C40.8809815,48.21393 41.1909069,51.1779706 41.840679,54.0833948 C42.0083436,54.8318722 42.1669757,55.5876778 42.5830328,56.2459774 C42.906507,56.758302 43.3513556,57.0812519 43.9158835,56.606127 C44.2438739,56.3305205 44.5351704,56.3429205 44.9083236,56.4150625 C49.0773626,57.2176473 53.3626947,57.0773082 57.5260875,57.9616158 C58.4152196,58.1504265 58.9831338,57.629084 59.080233,56.6968677 C59.1762035,55.7742334 58.927811,54.9011963 58.5546578,54.0726859 C58.0149688,52.8750079 57.633348,51.6232238 57.3143901,50.3590397 C56.9835772,49.0469494 56.6392154,47.7433129 56.187593,46.467293 C55.2239443,43.7450424 54.4663479,40.9675575 53.8860136,38.1370944 C53.5879433,36.6824099 53.1634186,35.2536509 52.8072018,33.8108022 C52.1156545,31.0113366 51.400962,28.2146889 51.1299894,25.3335005 C51.0255513,24.2209285 51.1057142,24.1476596 52.2268663,24.3235063 C55.0370858,24.7631236 57.8060963,25.4022605 60.5434917,26.1710288 C61.5026242,26.4404353 62.3827237,26.8344015 63.0878186,27.6217685 C63.7404132,28.3499562 64.563495,28.2180709 65.1331042,27.4030861 C65.3092376,27.1511514 65.3973043,26.8372182 65.5209361,26.5492118 C66.1509494,25.0781825 66.1469981,23.4792127 66.4648272,21.9456221 C66.7572525,20.5343361 66.557974,19.0683786 67,17.6807643 C67,16.4182712 67,15.1557794 67,13.8932863 C66.4992637,13.1814433 65.7902175,12.6916635 65.0986702,12.2086477 L65.0986629,12.2086477 Z"/></svg>